<svg xmlns="http://www.w3.org/2000/svg" xmlns:xlink="http://www.w3.org/1999/xlink" viewBox="0 0 375 200"><defs><style>.a{fill:none;}.af,.b{fill:#33a474;}.c{fill:#cccfd4;}.d{clip-path:url(#a);}.e{fill:#bbbfc6;}.f{fill:#abafb8;}.em,.g{fill:#dddfe2;}.h{fill:#28835c;}.ab,.ac,.ad,.ae,.af,.ag,.ah,.ai,.aj,.ak,.al,.am,.an,.ao,.ap,.aq,.ar,.as,.at,.au,.av,.aw,.ax,.ay,.az,.ba,.bb,.bc,.bd,.be,.bf,.bg,.bh,.bi,.bk,.bl,.bm,.bs,.bt,.bu,.bv,.by,.bz,.ca,.cb,.de,.df,.dg,.dh,.di,.dj,.dk,.dl,.dm,.dn,.dp,.dq,.ds,.dt,.du,.dv,.dw,.eg,.ei,.ej,.ek,.el,.em,.en,.eo,.ep,.eq,.er,.es,.et,.eu,.ev,.ew,.ex,.ey,.ez,.fa,.fb,.fc,.h,.i,.j,.k,.l,.m,.n,.o,.p,.q{fill-rule:evenodd;}.cl,.i{fill:#2d9368;}.dx,.j{fill:#1d2432;opacity:0.1;}.k{fill:#e4ae3a;}.l{fill:#fff7ae;}.ce,.m{fill:#f4d75c;}.ci,.n{fill:#72cbcc;}.o{fill:#ecf4f7;}.cj,.p{fill:#b3889d;}.q{fill:#dbcfe0;}.r{fill:#ab90b8;}.bb,.s{fill:#8e699f;}.ab,.t{fill:#4b5464;}.ek,.u{fill:#9a9fa9;}.en,.v{fill:#86b264;}.w{fill:#709d52;}.aj,.x{fill:#648e43;}.fb,.y{fill:#a0cf7e;}.ah,.z{fill:#96637c;}.aa,.ax{fill:#734d61;}.ac{fill:#787f8d;}.ad{fill:#309b6e;}.ae{fill:#216a4b;}.ag{fill:#267a56;}.ai{fill:#9f80ae;}.ak,.dy{fill:#3d4554;}.al{fill:#99c26d;}.am{fill:#5a753d;}.an{fill:#35785d;}.ao,.cw{fill:#dfbda5;}.ap,.bo{fill:#8b6651;}.aq,.br{fill:#c3987b;}.ar,.bn{fill:#e8cab6;}.as,.da{fill:#fff;}.at{fill:#446125;}.au,.ck{fill:#70bf9d;}.av{fill:#47ad82;}.aw,.bw{fill:#232a38;}.ay,.cc{fill:#b68b2e;}.az{fill:#886822;}.ba{opacity:0.2;}.bc{fill:#f7f5f6;}.bd{fill:#185e60;}.be{fill:#1e7678;}.bf,.cp{fill:#359496;}.bg,.bx{fill:#543042;}.bh{fill:#7a7a7a;}.bi{fill:#dddddc;}.bj,.eg{fill:#8f8f8f;}.bk{fill:#785d88;}.bl,.bp{fill:#594165;}.bm{fill:#ececeb;}.bq,.bt{fill:#9075a0;}.bs{fill:#734c5f;}.bu{fill:#c4c4c4;}.bv{fill:#a3a3a3;}.by,.ch{fill:#4fa9aa;}.bz{fill:#ecc675;}.ca{fill:#fbfafb;}.cb{fill:#e7dfea;}.cd,.fa{fill:#e6b64e;}.cf,.ez{fill:#cc9c34;}.cg,.eo{fill:#9f7928;}.cm,.ej{fill:#d1a1b8;}.cn{fill:#6c4d7b;}.co{fill:#88619a;}.cq{fill:#aa822b;}.cr{fill:#165e60;}.cs{fill:#3b88a1;}.ct{fill:#369496;}.cu{fill:#317186;}.cv{fill:#89909b;}.cx{fill:#50a9aa;}.cy,.ew{fill:#94d5d5;}.cz,.dh{fill:#404857;}.db{fill:#68707f;}.dc{fill:#51596a;}.dd,.df{fill:#5f6878;}.de{fill:#454d5d;}.dg{fill:#b7a0c2;}.di{fill:#856400;}.dj{fill:#846528;}.dk{fill:#755924;}.dl,.eh{fill:#b58b00;}.dm,.do{fill:#e5c82e;}.dn,.dr{fill:#bf8f00;}.dp{fill:#9d782c;}.dq{fill:#755800;}.ds,.ef{fill:#9e7700;}.dt{fill:#343c4b;}.du{fill:#ccad14;}.dv{fill:#ccae2d;}.dw{fill:#9471a4;}.dz{fill:#802d00;}.ea{fill:#a84000;}.eb{fill:#cc4e00;}.ec{fill:#ed8600;}.ed{fill:#ff9b01;}.ee{fill:#ffd557;}.ei{fill:#735283;}.el{fill:#f9fafa;}.ep{fill:#c29431;}.eq{fill:#e5b244;}.er{fill:#734d60;}.es{fill:#5e436b;}.et{fill:#815c92;}.eu{fill:#583f64;}.ev{fill:#a0cbd9;}.ex{fill:#947125;}.ey{fill:#7d5f1f;}.fc{fill:#c0db8e;}</style><clipPath id="a"><path class="a" d="M220,96.64,372.28,42.9l2.72.49V56.25L220.74,129,5.84,42.6,26.75,39ZM132.91,63.91l83.45,21L304,58.76l27-23.31-20.3-3.65L215.18,71.09,92.26,27.6,71,31.28Z"/></clipPath></defs><polygon class="b" points="375 43.39 336.49 43.83 310.67 31.8 287.38 27.6 187.5 38.48 92.25 27.6 56.06 40.63 5.84 42.6 0 43.61 0 200 375 200 375 56.26 372.56 51.45 375 43.39"/><path class="c" d="M220,96.64,372.28,42.9l2.72.49V56.25L220.74,129,5.84,42.6l10.78-1.87,1.58,0,.41-.38L26.75,39ZM132.91,63.91l83.45,21L304,58.76l27-23.31-9.8-1.76-1.52,0-.39-.38-8.59-1.54L215.18,71.09,92.26,27.6,71,31.28Z"/><g class="d"><polygon class="e" points="319.25 33.34 216.08 77.49 84.04 29.03 81.79 29.42 216 78.58 321.16 33.69 319.25 33.34"/><polygon class="e" points="15.36 48.19 56.51 39.83 55.88 40.72 16.52 48.81 15.36 48.19"/><polygon class="e" points="65.57 45.52 19.27 54.94 20.61 55.56 66.01 46.14 65.57 45.52"/><polygon class="e" points="39.29 60.16 70.87 52.01 69.09 51.47 36.8 59.9 39.29 60.16"/><polygon class="e" points="55.41 64.96 82.28 56.88 81.39 56.08 52.48 64.87 55.41 64.96"/><polygon class="e" points="65.88 69.72 92.18 61.1 93.42 61.46 66.86 70.61 65.88 69.72"/><polygon class="e" points="80.68 75.92 107.53 66.59 108.42 67.21 82.02 76.54 80.68 75.92"/><polygon class="e" points="95.21 82.12 122.61 72.17 123.23 73.15 96.01 83.01 95.21 82.12"/><polygon class="e" points="112.04 87.55 134.25 79.73 136.03 80.62 110.8 89.86 112.04 87.55"/><polygon class="e" points="129.28 94.66 154.51 84.89 155.4 85.95 129.1 96.44 129.28 94.66"/><polygon class="e" points="146.09 100.99 165.35 93.52 171.4 93.06 146.8 102.59 146.09 100.99"/><polygon class="e" points="165.77 109.23 188.87 99.81 186.92 98.57 162.57 109.41 165.77 109.23"/><polygon class="e" points="181.94 116.64 205.04 105.62 203.59 104.91 178.74 116.46 181.94 116.64"/><polygon class="e" points="217.73 114.14 190.59 127.36 190.41 125.58 219.56 111.54 217.73 114.14"/><polygon class="e" points="217.73 114.14 241.59 123.8 243.25 123.21 216.83 112.08 217.73 114.14"/><polygon class="e" points="375 48.47 219.1 121.18 18.61 40.38 16.62 40.73 219.45 122.67 374.75 49.65 375 49.33 375 48.47"/><polygon class="e" points="230.4 106.92 257.23 118.47 258.48 117.5 230.49 105.59 230.4 106.92"/><polygon class="e" points="245.94 100.79 270.46 110.74 268.95 111.28 241.5 100.26 245.94 100.79"/><polygon class="e" points="258.21 94.92 280.16 103.99 281.67 103.46 259.1 94.04 258.21 94.92"/><polygon class="e" points="270.38 88.08 293.13 97.68 291.71 98.21 268.96 88.79 270.38 88.08"/><polygon class="e" points="283.89 82.93 306.28 91.81 304.68 92.7 281.76 83.28 283.89 82.93"/><polygon class="e" points="293.84 78.31 317.38 86.84 318.54 86.13 294.23 77.24 293.84 78.31"/><polygon class="e" points="303.44 72.27 329.51 81.69 331.52 80.97 304.64 71.38 303.44 72.27"/><polygon class="e" points="315.66 67.47 340.45 75.11 342.85 74.23 317.25 66.62 315.66 67.47"/><polygon class="e" points="327.33 62.32 354.63 69.05 357.62 68.22 329.24 61.53 327.33 62.32"/><polygon class="e" points="340.55 56.52 367.56 63.1 365.81 64.03 337.71 56.95 340.55 56.52"/><polygon class="e" points="350.17 52.62 377 59.37 378.07 58.31 351.06 51.91 350.17 52.62"/><polygon class="e" points="375 49.33 356.93 45.97 355.51 46.5 375 50.5 375 49.33"/><polygon class="e" points="79.4 35.78 104.99 30.45 105.82 30.92 80.76 36.37 79.4 35.78"/><polygon class="e" points="90.6 40.65 117.25 34.26 118.14 34.88 91.31 41.45 90.6 40.65"/><polygon class="e" points="104.95 45.63 130.72 38.61 131.96 39.05 106.37 46.16 104.95 45.63"/><polygon class="e" points="143.23 43.41 144.21 44.03 119.06 52.38 118.53 51.41 143.23 43.41"/><polygon class="e" points="132.52 56.84 157.31 48.42 158.09 49.17 133.38 57.5 132.52 56.84"/><polygon class="e" points="146.93 61.83 171.69 53.3 172.29 54.01 148.95 62.66 146.93 61.83"/><polygon class="e" points="164.09 66.57 186.48 57.92 187.91 58.4 164.45 67.64 164.09 66.57"/><polygon class="e" points="179.12 72.72 202.58 62.65 203.41 63.48 179 74.26 179.12 72.72"/><polygon class="e" points="215.18 71.09 192.43 80.8 192.54 79.26 216.6 69.19 215.18 71.09"/><polygon class="e" points="215.18 71.09 236.38 78.67 238.16 77.95 215.29 70.13 215.18 71.09"/><polygon class="e" points="227.85 63.62 251.9 72.27 250.36 72.74 226.31 64.21 227.85 63.62"/><polygon class="e" points="241.34 58.89 264.81 66.58 263.03 67.17 239.31 59.47 241.34 58.89"/><polygon class="e" points="252.47 53.67 276.29 61.49 274.75 61.96 251.05 54.14 252.47 53.67"/><polygon class="e" points="284.66 56.33 262.12 49.95 263.52 49.4 287 55.84 284.66 56.33"/><polygon class="e" points="277.49 45.39 298.63 50.65 296.88 51.42 272.62 45.07 277.49 45.39"/><polygon class="e" points="285.71 40.2 310.95 46.11 312.36 45.38 287.36 39.57 285.71 40.2"/><polygon class="e" points="296.94 35.84 323.75 40.64 324.8 39.9 298.94 35.19 296.94 35.84"/></g><polygon class="f" points="216.36 84.89 71.04 31.28 26.75 38.97 217.73 114.14 372.28 42.9 330.96 35.45 216.36 84.89"/><polygon class="g" points="77.4 43.81 83.15 46 80.25 46.65 74.08 44.28 77.4 43.81"/><polygon class="g" points="123.12 63.05 125.67 62.34 131.29 64.48 129.22 65.37 123.12 63.05"/><polygon class="f" points="202.38 92.53 195.98 90.16 193.97 90.99 200.13 93.47 202.38 92.53"/><polygon class="g" points="228.81 92.6 230.79 93.49 225.19 96.12 223.23 95.22 228.81 92.6"/><polygon class="g" points="250.01 83.04 254.98 80.79 257.35 81.62 252.02 83.87 250.01 83.04"/><polygon class="g" points="327.23 47.38 331.26 45.37 334.1 46.08 329.6 48.09 327.23 47.38"/><polygon class="h" points="180.68 188.49 182.86 192.66 184.73 192.2 186.59 192.66 189.48 188.49 184.86 191.11 180.68 188.49"/><polygon class="i" points="182.86 192.66 185.53 186.35 186.59 192.66 182.86 192.66"/><polygon class="h" points="361.07 116.47 359.29 112.46 362.13 115.42 365.26 112.69 363.61 116.47 362.61 116.01 361.07 116.47"/><polygon class="i" points="362.31 111.4 361.07 116.47 363.61 116.47 362.31 111.4"/><polygon class="h" points="269.37 115.36 271.47 118.92 272.45 118.45 274.35 118.92 275.83 115.36 272.6 117.77 269.37 115.36"/><polygon class="i" points="271.47 118.92 272.33 114.18 274.35 118.92 271.47 118.92"/><polygon class="h" points="180.1 163.93 183.22 169.19 184.87 168.72 187.04 169.19 189.35 163.67 185.26 167.33 180.1 163.93"/><polygon class="i" points="183.22 169.19 184.46 162.56 187.04 169.19 183.22 169.19"/><polygon class="h" points="306.36 182.44 309.34 181.51 311.03 182.44 313.79 176.22 308.81 180.75 303.21 176.75 306.36 182.44"/><polygon class="i" points="311.03 182.44 307.57 174.18 306.36 182.44 311.03 182.44"/><polygon class="h" points="149.41 162.57 152.62 166.72 154.58 165.79 156.06 166.72 159.16 161.01 154.29 164.65 149.41 162.57"/><polygon class="i" points="154.8 159.34 152.62 166.72 156.06 166.72 154.8 159.34"/><polygon class="h" points="260.27 126.2 262.3 129.24 263.55 128.56 264.49 129.24 266.45 125.06 263.36 127.72 260.27 126.2"/><polygon class="i" points="263.69 123.84 262.3 129.24 264.49 129.24 263.69 123.84"/><polygon class="h" points="94.3 184.05 97.26 187.61 98.55 186.68 99.85 187.61 102.53 184.05 98.8 186.3 94.3 184.05"/><polygon class="i" points="97.26 187.61 99.04 181.56 99.85 187.61 97.26 187.61"/><polygon class="h" points="10.69 70.28 13.66 73.83 14.95 72.9 16.24 73.83 18.92 70.28 15.2 72.53 10.69 70.28"/><polygon class="i" points="13.66 73.83 15.43 67.79 16.24 73.83 13.66 73.83"/><polygon class="h" points="111.76 171.94 115.93 177.74 118.22 176.81 120.51 177.74 124.67 171.11 118.22 175.97 111.76 171.94"/><polygon class="i" points="115.93 177.74 117.47 169.33 120.51 177.74 115.93 177.74"/><polygon class="h" points="18.18 178.91 21.61 183.4 23.21 182.47 24.81 183.4 27.42 178.07 23.03 181.17 18.18 178.91"/><polygon class="i" points="24.81 183.4 21.85 175.94 21.61 183.4 24.81 183.4"/><polygon class="h" points="15.18 90.74 18.26 95.12 20.45 94.19 22.64 95.12 25.37 89.55 20.27 93.7 15.18 90.74"/><polygon class="i" points="18.26 95.12 21.22 87.78 22.64 95.12 18.26 95.12"/><polygon class="h" points="80.99 85.75 82.95 89.1 84.19 88.63 85.43 89.1 87.66 85.09 84.27 87.79 80.99 85.75"/><polygon class="i" points="84.27 83.77 82.95 89.1 85.43 89.1 84.27 83.77"/><polygon class="h" points="232.94 47.06 234.69 50.33 235.88 49.27 237.53 50.33 239.82 46.71 236.18 48.97 232.94 47.06"/><polygon class="i" points="234.69 50.33 236.73 45.01 237.53 50.33 234.69 50.33"/><polygon class="h" points="248.04 39.48 249.01 41.58 250.01 40.65 250.79 41.58 251.99 39.34 249.86 40.78 248.04 39.48"/><polygon class="i" points="250.79 41.58 249.5 38.63 249.01 41.58 250.79 41.58"/><polygon class="h" points="192.46 42.8 193.8 45.6 194.83 45.04 195.86 45.6 197.49 42.33 194.97 44.3 192.46 42.8"/><polygon class="i" points="193.8 45.6 194.97 41.64 195.86 45.6 193.8 45.6"/><polygon class="j" points="119.47 159.54 122.25 157.98 119.17 157.21 115.38 158.28 119.47 159.54"/><polygon class="h" points="118.22 156.44 119.47 159.54 119.73 154.89 118.22 156.44"/><polygon class="k" points="114.14 154.39 118.52 152.34 122.31 154.77 118.22 156.44 114.14 154.39"/><polygon class="l" points="117.25 154.28 118.55 153.81 119.73 154.55 117.93 155.29 117.25 154.28"/><polygon class="j" points="104.04 100.84 106.5 99.55 103.3 98.54 100.52 99.19 104.04 100.84"/><polygon class="h" points="102.23 97.41 104.04 100.84 103.73 94.93 102.23 97.41"/><polygon class="k" points="99.27 94.43 102.83 92.73 106.38 95.01 102.23 97.41 99.27 94.43"/><polygon class="l" points="101.44 94.66 102.71 94.08 103.74 95.07 102.23 95.96 101.44 94.66"/><polygon class="j" points="144.05 180.33 148.26 182.11 151.46 179.86 146.48 177.79 144.05 180.33"/><polygon class="h" points="147.14 177.12 145.55 180.84 145.55 174.88 147.14 177.12"/><polygon class="k" points="143.11 174.03 147.85 171.78 152.71 174.39 147.14 177.12 143.11 174.03"/><polygon class="l" points="146.34 174.08 147.91 173.33 149.1 174.08 147.14 175.59 146.34 174.08"/><polygon class="j" points="281.26 187.73 284.74 188.16 287.19 186.84 284.17 185.72 281.26 187.73"/><polygon class="h" points="283.1 184.81 284.74 188.16 284.52 182.59 283.1 184.81"/><polygon class="k" points="279.49 181.88 283.99 180.36 287.07 182.25 283.1 184.81 279.49 181.88"/><polygon class="l" points="282.3 182.4 283.69 181.63 284.64 182.22 283.22 183.23 282.3 182.4"/><polygon class="j" points="62.87 190.31 65.27 189.37 62.66 188.36 59.4 189.19 62.87 190.31"/><polygon class="h" points="61.36 187.53 62.87 190.31 63.11 185.47 61.36 187.53"/><polygon class="k" points="57.31 185.25 61.71 182.39 65.62 184.73 61.36 187.53 57.31 185.25"/><polygon class="l" points="59.93 184.92 61.41 183.97 63.07 184.69 61.24 185.75 59.93 184.92"/><polygon class="j" points="346.25 172.26 351.46 171.37 347.67 169.53 344.83 171.13 346.25 172.26"/><polygon class="h" points="347.63 170.02 346.25 172.26 346.94 167.37 347.63 170.02"/><polygon class="m" points="345.7 166.19 350.12 165.19 353.2 167.61 347.63 170.02 345.7 166.19"/><polygon class="l" points="347.79 166.93 349.45 166.4 350.69 167.4 348.38 168.35 347.79 166.93"/><polygon class="j" points="310.9 166.94 312.67 165.87 315.04 166.41 313.09 167.59 310.9 166.94"/><polygon class="h" points="311.85 164.89 313.09 167.31 312.87 163.19 311.85 164.89"/><polygon class="n" points="309.36 162.91 312.29 161.49 314.95 162.91 311.85 164.89 309.36 162.91"/><polygon class="o" points="311.07 162.97 312.14 162.44 313.21 162.97 311.9 163.8 311.07 162.97"/><polygon class="j" points="169.15 174.18 170.92 173.12 173.29 173.65 171.34 174.84 169.15 174.18"/><polygon class="h" points="170.09 172.14 171.34 174.55 171.12 170.44 170.09 172.14"/><polygon class="n" points="167.61 170.15 170.54 168.73 173.2 170.15 170.09 172.14 167.61 170.15"/><polygon class="o" points="169.32 170.22 170.39 169.68 171.46 170.22 170.15 171.04 169.32 170.22"/><polygon class="j" points="9.39 137.95 11.17 136.88 13.54 137.41 11.58 138.6 9.39 137.95"/><polygon class="h" points="10.34 135.9 11.58 138.32 11.36 134.2 10.34 135.9"/><polygon class="n" points="7.85 133.92 10.78 132.5 13.45 133.92 10.34 135.9 7.85 133.92"/><polygon class="o" points="9.57 133.98 10.63 133.45 11.7 133.98 10.4 134.81 9.57 133.98"/><polygon class="j" points="351.48 106.01 353.79 104.83 350.76 104.06 348.28 105.24 351.48 106.01"/><polygon class="h" points="349.88 103.63 351.48 106.01 351.12 101.36 349.88 103.63"/><polygon class="n" points="347.03 100.95 350.32 99.08 353.25 100.72 349.88 103.63 347.03 100.95"/><polygon class="o" points="349.05 101.16 350.7 100.21 351.53 100.86 350.17 102.1 349.05 101.16"/><polygon class="j" points="247.7 136.16 249.5 135.36 247.42 134.47 245.82 135.42 247.7 136.16"/><polygon class="h" points="246.6 134.55 247.7 136.16 247.42 133.04 246.6 134.55"/><polygon class="n" points="244.88 133.01 247.19 131.53 249.23 133.01 246.6 134.55 244.88 133.01"/><polygon class="o" points="246.36 132.93 247.19 132.4 247.78 133.11 246.89 133.59 246.36 132.93"/><polygon class="j" points="300 160.41 303.62 162.07 299.53 162.84 297.81 161.48 300 160.41"/><polygon class="h" points="300.54 159.28 299.25 162.43 299.74 157.35 300.54 159.28"/><polygon class="p" points="298.34 157.22 301.6 155.15 304.62 157.22 300.54 159.28 298.34 157.22"/><polygon class="q" points="300.36 157.21 301.48 156.44 302.37 157.27 301.07 157.87 300.36 157.21"/><polygon class="j" points="51.3 115.17 56.38 113.57 52.18 112.45 49.16 113.99 51.3 115.17"/><polygon class="h" points="53.21 111.44 51.3 115.17 52.06 108.77 53.21 111.44"/><polygon class="n" points="50.06 108.77 54.1 106.55 58.1 108.77 53.21 111.44 50.06 108.77"/><polygon class="o" points="52.71 108.83 54.13 107.94 55.49 108.65 53.48 109.72 52.71 108.83"/><polygon class="j" points="129.22 189.65 133.3 190.95 135.91 189.12 132.53 187.7 129.22 189.65"/><polygon class="h" points="131.27 186.05 132.64 190.29 133.35 183.7 131.27 186.05"/><polygon class="n" points="128.66 182.74 132.34 180.24 136.09 182.74 131.27 186.05 128.66 182.74"/><polygon class="o" points="130.75 183.13 132.53 181.95 133.48 182.78 131.7 184.08 130.75 183.13"/><polygon class="j" points="334.4 187.01 338.01 187.96 340.44 186.36 336.47 185.11 334.4 187.01"/><polygon class="h" points="337.04 184.46 335.56 187.06 336.16 182.46 337.04 184.46"/><polygon class="p" points="334.67 181.81 338.34 180.77 341.4 182.64 337.04 184.46 334.67 181.81"/><polygon class="q" points="336.59 182.27 338.07 181.92 339.01 182.45 337.36 183.1 336.59 182.27"/><polygon class="j" points="49.76 182.61 53.51 180.96 49.42 179.89 46.1 181.01 49.76 182.61"/><polygon class="h" points="48.46 178.84 49.76 182.61 50.34 176.88 48.46 178.84"/><polygon class="p" points="44.56 175.86 49.18 174.32 53.92 176.57 48.46 178.84 44.56 175.86"/><polygon class="q" points="47.58 176.28 48.94 175.44 50.19 176.33 48.47 177.04 47.58 176.28"/><polygon class="j" points="28.8 85.07 33.15 83.36 29.77 82.12 26.99 83.66 28.8 85.07"/><polygon class="h" points="30.42 81.59 28.8 85.07 29.02 79.56 30.42 81.59"/><polygon class="p" points="26.75 79.23 30.78 76.87 34.27 78.92 30.42 81.59 26.75 79.23"/><polygon class="q" points="29.18 79.1 30.72 78.15 31.96 78.86 30.42 79.81 29.18 79.1"/><polygon class="r" points="169.57 41.46 183.07 46.26 180.46 50.45 169.44 46.26 169.57 41.46"/><polygon class="s" points="158.48 45.14 169.57 41.46 169.84 44.94 168.85 48.75 160.46 49.28 158.48 45.14"/><polygon class="t" points="161.21 47.33 169.54 44.25 180.98 48.66 179.75 50.7 162.57 49.64 161.21 47.33"/><polygon class="u" points="171.16 27.32 172.4 19.03 171.78 19.03 169.68 28.98 171.16 27.32"/><polygon class="u" points="169.5 48.16 170.39 47.86 170.92 28.28 170.35 28.14 169.68 28.98 169.15 36.66 169.5 48.16"/><polygon class="c" points="168.02 28.09 168.85 47.92 169.5 48.16 169.68 28.98 168.85 27.95 168.02 28.09"/><polygon class="c" points="169.68 28.98 175.31 20.93 176.14 21.4 170.92 28.28 169.68 28.98"/><polygon class="u" points="169.68 28.98 168.02 28.09 165.53 21.22 166.36 20.93 169.68 28.98"/><polygon class="v" points="155.28 21.57 163.49 24.95 172.15 22.57 177.74 24.6 185.08 22.29 183.27 13.52 178.52 12.94 175.9 10.62 174.04 9.15 172.84 6.13 160.46 10.07 155.28 21.57"/><polygon class="w" points="155.28 21.57 163.64 20.93 168.55 21.41 173.12 17.61 185.08 22.29 177.74 26.2 171.69 23.76 168.69 23.5 163.22 26.91 155.28 21.57"/><polygon class="w" points="175.9 10.62 167.19 14.08 172.84 6.13 175.9 10.62"/><polygon class="x" points="163.64 20.93 163.22 26.91 171.69 23.76 173.12 17.61 163.64 20.93"/><polygon class="y" points="173.12 17.61 163.64 20.93 160.46 10.07 173.12 17.61"/><polygon class="y" points="183.27 13.52 173.12 17.61 175.9 10.62 183.27 13.52"/><polygon class="r" points="159.61 46.26 171.47 50.7 173.12 51.96 171.87 55.77 158.72 51.12 158.58 47.61 159.61 46.26"/><polygon class="s" points="172.41 50.45 181.84 47.92 182.84 48.46 182.41 52.45 171.87 55.77 171.58 52.14 172.41 50.45"/><polygon class="z" points="158.48 45.14 171.41 49.93 172.41 50.86 171.58 52.14 158.58 47.61 158.48 45.14"/><polygon class="aa" points="171.41 49.93 183.07 46.26 182.84 48.46 171.58 52.14 171.41 49.93"/><polygon class="r" points="213.25 58.41 213.25 53.66 226.9 58.68 225.72 63.78 213.25 58.41"/><polygon class="s" points="213.25 53.66 198.05 58.41 204.57 62.47 213.25 58.41 213.25 53.66"/><polygon class="t" points="202.93 60.8 213.32 56.66 226.3 61.26 225.84 65.75 213.9 67.92 202.93 63.24 202.93 60.8"/><polygon class="u" points="212.6 43.59 207.37 35.32 206.44 36.02 213.25 46.39 212.6 43.59"/><polygon class="u" points="213.9 42.42 212.42 33.3 211.65 33.71 213.15 44.43 213.9 42.42"/><polygon class="c" points="213.9 42.42 222.07 36.02 222.25 36.73 215.03 43.25 214.43 43.59 213.9 42.42"/><polygon class="u" points="213.9 42.42 215.03 43.25 214.14 60.9 213.13 61.49 212.78 53.62 213.9 42.42"/><polygon class="c" points="212.6 43.59 212.06 60.78 213.13 61.49 213.9 42.42 212.6 43.59"/><polygon class="v" points="202.88 36.76 208.94 37.8 213.9 36.59 221.54 38.87 229.9 33.86 228.59 24.26 220.83 22.54 219.2 15.95 208.51 18.6 209.29 22.8 206.14 25.6 200.11 29.88 202.88 36.76"/><polygon class="w" points="198.38 29.3 204.84 29.66 209.01 32.86 219.5 30.37 223.14 35.18 227.98 34.77 224.98 36.86 221.9 41.12 213.22 38.21 211.65 37.8 209.48 40.65 202.35 37.86 198.38 29.3"/><polygon class="w" points="208.51 18.6 219.5 30.37 206.14 25.6 208.51 18.6"/><polygon class="y" points="228.59 24.26 213.9 24.37 219.2 15.95 228.59 24.26"/><polygon class="y" points="206.14 25.6 209.01 32.86 198.38 29.3 206.14 25.6"/><polygon class="r" points="199.52 59.88 218.08 65.63 215.18 71.09 197.49 64.83 197.86 60.6 199.52 59.88"/><polygon class="s" points="216.83 64.51 225.9 59.88 226.75 61.41 226.48 66.44 215.18 71.09 215.53 66.46 216.83 64.51"/><polygon class="z" points="198.05 58.41 215.71 64.13 216.42 65.22 215.53 66.46 197.86 60.6 198.05 58.41"/><polygon class="aa" points="215.71 64.13 226.9 58.68 226.75 61.41 215.53 66.46 215.71 64.13"/><polygon class="x" points="209.01 32.86 209.48 40.65 213.22 38.21 219.5 30.37 209.01 32.86"/><polygon class="x" points="223.14 35.18 221.9 41.12 229.9 33.86 223.14 35.18"/><polygon class="j" points="94.82 73.21 90 74.04 97.76 79.55 112.5 78.22 106.51 74.34 101.1 71.77 97.76 70.75 94.82 73.21"/><polygon class="ab" points="94.8 70.31 94.16 72.59 95.51 74.77 99.61 74.1 98.13 70.81 94.8 70.31"/><polygon class="ac" points="94.16 72.59 94.16 74.88 96.92 76.11 101.36 76.11 101.07 73.25 97.61 73.25 95.72 74.38 94.16 72.59"/><polygon class="ad" points="97.07 66.29 96.06 68.08 100.83 72.16 102.71 69.35 97.07 66.29"/><polygon class="ae" points="94.8 70.31 96.06 68.08 100.44 70.2 101.69 70.84 101.99 71.7 101.24 72.65 94.8 70.31"/><polygon class="af" points="105.93 54.58 105.32 66.92 98.85 65.54 98.41 58.33 105.93 54.58"/><polygon class="i" points="103.77 58.99 103.75 66.72 102.69 65.94 102.19 58.15 103.77 58.99"/><polygon class="ag" points="103.77 58.99 100.65 62.38 99.61 59.99 101.37 55.74 103.77 58.99"/><polygon class="ah" points="110.86 17.93 110.41 15.02 108.08 17.7 110.86 17.93"/><polygon class="ai" points="111.79 44.61 113.13 39.98 110.3 38.06 109.45 31.88 108.7 33.07 109.6 38.45 112.31 40.38 110.75 45.48 111.79 44.61"/><polygon class="ai" points="108.7 54.13 108.71 55.66 109.49 55.77 109.92 53.9 108.7 54.13"/><polygon class="aj" points="113.36 50.2 114.2 51.92 110.81 54.33 107.75 50.73 113.36 50.2"/><polygon class="aj" points="102.64 39.62 105.91 47.3 106.61 53.18 103.77 58.99 101.53 56.78 99.61 59.99 94.42 54.66 91.19 54.66 90.83 48.54 93.87 38.45 102.64 39.62"/><polygon class="ab" points="100.37 46.44 98.88 53.83 101.27 55.14 103.31 53.21 100.37 46.44"/><polygon class="ak" points="103.31 53.21 98.88 53.83 101.53 56.78 103.31 53.21"/><polygon class="ak" points="102.23 43.6 100.37 46.44 97.8 43.97 100.08 43.19 102.23 43.6"/><polygon class="i" points="104.12 39.06 107.12 40.08 107.79 44.43 105.91 47.3 104.12 39.06"/><polygon class="al" points="107.12 40.08 111.01 46.17 110.16 46.93 107.86 48.65 105.91 47.3 107.12 40.08"/><polygon class="al" points="100.08 43.19 97.28 39.65 93.87 38.45 94.59 47.03 100.08 43.19"/><polygon class="al" points="104.12 39.06 100.57 40.41 100.08 43.19 105.91 47.3 104.12 39.06"/><polygon class="am" points="102.99 36.02 100.93 38.28 101.48 41.81 104.12 39.06 102.99 36.02"/><polygon class="am" points="94.12 33.89 93.87 38.45 97.08 40.9 96.33 37.34 94.12 33.89"/><polygon class="an" points="88.86 35.79 94.12 33.89 94.17 32.28 92.96 30.7 91.01 32.41 88.86 35.79"/><polygon class="i" points="110.31 21.8 108.78 26.94 108.99 33.07 110.32 31.76 111.42 30.59 112.71 29.85 111.54 22.79 111.23 21.86 110.31 21.8"/><polygon class="ao" points="110.31 21.8 109.85 25.68 110.69 27.65 108.99 33.07 108.63 36.1 102.99 36.02 100.86 40.81 100.08 43.19 98.33 39.52 92.96 30.7 99.09 23.1 106.04 18.38 110.31 21.8"/><polygon class="ap" points="104.7 19.29 110.34 21.83 108.1 19.31 105.95 17.79 104.76 18.33 104.7 19.29"/><polygon class="aq" points="104.82 29 103.21 24.88 101.77 22.91 103.12 22.2 104.61 22.4 104.89 23.67 104.82 29"/><polygon class="aq" points="106.14 23.71 106.68 22.52 107.91 22.48 109.29 23.36 106.05 27.27 106.14 23.71"/><polygon class="ap" points="106 29.05 105.36 29.85 104.82 29 106 29.05"/><polygon class="aq" points="99.09 23.1 97.91 27.89 98.67 30.42 98.37 35.77 100.89 37.29 102.23 38.91 101.48 41.81 100.08 43.19 97.08 40.9 94.12 33.89 94.17 32.28 92.96 30.7 99.09 23.1"/><polygon class="ar" points="106.14 23.71 106 29.05 104.82 29 104.89 23.67 106.14 23.71"/><polygon class="ap" points="99.09 23.1 97.14 27.79 94.81 29.84 97.68 30.48 94.12 33.89 92.96 30.7 94.21 27.61 99.09 23.1"/><polygon class="i" points="106.68 22.52 108.28 21.98 109.29 23.36 106.68 22.52"/><polygon class="i" points="104.61 22.4 103.28 21.8 101.77 22.91 104.61 22.4"/><polygon class="aj" points="108.42 31.53 105.17 34.29 101.29 31.38 108.42 31.53"/><polygon class="as" points="107.53 31.73 105.31 32.15 102.22 31.58 104.41 33.05 105.81 33.07 107.53 31.73"/><polygon class="at" points="108.42 31.53 105.33 31.02 101.29 31.38 105.32 32.26 108.42 31.53"/><polygon class="ap" points="102.99 36.02 96.33 35.66 102.23 38.91 102.99 36.02"/><polygon class="i" points="99.09 23.1 91.28 27.22 86.27 31.81 88.86 35.79 99.09 23.1"/><polygon class="i" points="98.36 21.66 92.34 16.26 84.79 25.54 98.36 21.66"/><polygon class="i" points="84.79 25.54 81.68 29.52 86.27 31.81 86.04 28.03 84.79 25.54"/><polygon class="au" points="106.04 18.38 105.84 17.12 103.77 14.56 92.34 16.26 96.87 21.47 106.04 18.38"/><polygon class="av" points="106.04 18.38 111.54 22.79 113.63 19.25 103.77 14.56 106.04 18.38"/><polygon class="av" points="106.04 18.38 86.27 31.81 84.79 25.54 106.04 18.38"/><path class="aw" d="M108.66,25.5a.74.74,0,1,1-1.47.23.74.74,0,1,1,1.47-.23Z"/><path class="aw" d="M103.72,25.17a.75.75,0,1,1-.86-.63A.76.76,0,0,1,103.72,25.17Z"/><polygon class="ao" points="113.36 50.2 112.65 47.23 111.82 46.39 111.34 48.27 113.36 50.2"/><polygon class="p" points="112.34 45.2 111.79 44.61 106.16 44.49 106.64 45.89 110.13 45.96 112.34 45.2"/><polygon class="ah" points="106.16 44.49 105.41 53.47 105.93 54.58 106.86 52.27 106.72 45.09 106.16 44.49"/><polygon class="ax" points="106.72 45.09 112.34 45.2 110.81 54.33 105.93 54.58 106.72 45.09"/><polygon class="aq" points="111.86 48.03 113.36 50.2 111.09 52.64 111.86 48.03"/><polygon class="ao" points="111.86 48.03 109.62 47.23 109.72 50.87 111.11 52.52 111.86 48.03"/><polygon class="k" points="111.54 22.79 113.51 25.91 113.13 29.99 109.66 31.85 109.85 25.68 111.54 22.79"/><polygon class="ay" points="109.85 25.68 110.73 30.26 110.72 31.28 109.26 30.74 109.85 25.68"/><polygon class="az" points="113.13 29.99 110.73 30.26 109.26 30.74 108.99 33.07 113.13 29.99"/><polygon class="ah" points="95.59 19.99 96.41 13.22 98.37 14.49 98.81 15.33 96.87 21.47 95.59 19.99"/><polygon class="p" points="96.41 13.22 110.41 15.02 109.29 17.19 98.81 15.33 96.41 13.22"/><polygon class="k" points="95.59 19.99 99.09 23.1 97.88 29.94 95.59 30.9 91.78 28.86 90.71 23.54 95.59 19.99"/><polygon class="ay" points="99.09 23.1 95.05 23.44 94.8 28.88 90.26 29.1 95.52 31.38 98.67 30.42 99.09 23.1"/><polygon class="m" points="90.71 23.54 95.05 23.44 94.8 28.88 90.26 29.1 90.71 23.54"/><polygon class="az" points="90.26 29.1 94.8 28.88 98.67 30.42 95.54 32.53 90.26 29.1"/><polygon class="ab" points="109.65 69.47 106.61 73.21 105.16 72.44 104.04 70.13 104.71 69.04 106.54 68.41 109.65 69.47"/><polygon class="ba" points="104.04 70.13 105 68.81 106.54 68.41 104.7 71.5 104.04 70.13"/><polygon class="ac" points="112.31 70.38 110.63 68.4 106.81 70.55 106.57 72.75 105.16 72.44 106.51 74.34 112.31 70.38"/><polygon class="av" points="105.32 66.92 103.94 69.31 100.44 70.2 92.19 62.88 91.65 57.34 92.62 52.86 95.86 55.46 105.32 66.92"/><polygon class="i" points="95.04 55.93 104.64 67.81 103.89 68.59 93.37 56.46 95.04 55.93"/><polygon class="i" points="91.82 59.07 102.99 69.18 102.12 69.94 92.09 61.91 91.82 59.07"/><polygon class="am" points="91.92 47.14 91.23 42.67 89.14 40.63 86.37 51.12 89.36 50.5 90.94 49.28 91.92 47.14"/><polygon class="i" points="93.87 38.45 89.14 40.63 91.92 47.14 93.87 38.45"/><polygon class="aq" points="94.82 54.2 95.86 55.46 93.07 58.81 91.65 57.34 92.05 55.33 94.82 54.2"/><polygon class="al" points="86.37 51.12 90.91 58.05 94.82 54.2 90.94 49.28 86.37 51.12"/><polygon class="ag" points="105.32 66.92 100.44 70.2 101.99 71.7 106.54 68.41 105.32 66.92"/><polygon class="j" points="248.55 80.27 276.28 66.26 295.35 63.89 309.11 66.86 285.49 80.79 264.05 86.01 248.55 80.27"/><polygon class="bb" points="267.83 78.67 273.07 79.58 284.59 75.07 288.54 67.86 267.83 78.67"/><polygon class="ax" points="305.3 50.77 302.52 60.44 292.33 65.35 296.3 53.76 305.3 50.77"/><polygon class="bc" points="310.43 44.3 290.04 39.79 280.89 43.65 302.28 51.24 310.43 44.3"/><polygon class="bd" points="301.93 48.91 284.08 44.31 268.38 48.59 252.68 55.52 257.32 65.02 277.1 67.86 299.56 52.99 301.93 48.91"/><polygon class="be" points="283.34 65.29 288.95 62.51 292.9 44.87 285.4 39.98 283.34 65.29"/><polygon class="bf" points="274.44 35.52 288.18 39.79 283.34 65.29 278.5 66.97 264.49 62.51 268.27 51.41 274.44 35.52"/><polygon class="ah" points="289.22 58.96 293.59 56 288.54 53.95 287.01 54.66 289.22 58.96"/><polygon class="bg" points="279.96 49.98 282.34 53.07 289.22 58.96 288.26 46 279.96 49.98"/><polygon class="bh" points="268.27 51.41 266.96 51.49 263.36 57.92 265.7 62.1 269.25 58.96 268.27 51.41"/><polygon class="bi" points="271.57 51.23 268.27 51.41 266.5 55.09 272.5 58.96 279.96 58.96 281.58 54.12 278.18 52.43 271.57 51.23"/><polygon class="bj" points="266.5 55.09 267.46 65.62 272.92 66.26 275.39 67.16 278.5 66.97 279.96 58.96 266.5 55.09"/><polygon class="bk" points="272.65 52.28 270.02 56.1 272.03 57.63 274.37 57.35 277.1 52.12 273.33 54.66 272.65 52.28"/><polygon class="bl" points="274.37 57.35 272.92 66.26 267.46 65.62 270.02 56.1 274.37 57.35"/><polygon class="bm" points="273.23 51.04 269.32 52.95 270.02 56.1 273.23 51.04"/><polygon class="ah" points="284.17 33.79 289.67 39.98 292.9 44.87 279.96 49.47 284.17 33.79"/><polygon class="ao" points="268.19 32.71 267.16 33.68 264.31 47.47 270.51 49.17 274.89 53.44 277.39 52.22 284.53 43.68 282.94 32.42 271.69 29.13 268.19 32.71"/><polygon class="aq" points="273.33 54.66 270.51 49.17 274.19 50.17 277.5 36.88 279.2 34.96 283.12 39.01 284.21 42.61 281.82 47.41 281.01 48.11 279.96 49.98 278.18 52.43 273.33 54.66"/><polygon class="p" points="279.2 34.96 273.15 33.73 269.35 32.38 271.53 28.63 283.49 32.04 281.74 34.52 279.2 34.96"/><polygon class="ap" points="281.82 47.41 280.7 46.24 279.96 49.98 281.82 47.41"/><polygon class="ao" points="281.82 47.41 280.01 45.52 280.49 44.81 280.41 43.88 282.95 40.84 284.81 43.68 281.82 47.41"/><polygon class="ap" points="282.78 42.61 281.74 43.97 283.65 43.59 282.78 42.61"/><polygon class="as" points="279.28 46.51 280.06 47.1 281.31 45.43 280.49 44.81 279.28 46.51"/><polygon class="bn" points="268.38 42.92 269.11 43.33 270.31 43.33 271.7 37.67 269.77 37.27 268.38 42.92"/><polygon class="bo" points="268.38 42.92 269.07 43.89 270.31 43.33 268.38 42.92"/><polygon class="bp" points="271.28 45.76 268.9 45.81 267.26 44.96 268.55 44.64 269.13 44.99 269.78 44.86 271.28 45.76"/><polygon class="bq" points="271.28 45.76 268.92 46.55 267.26 44.96 269 45.69 271.28 45.76"/><polygon class="br" points="266.04 40.37 268.65 41.83 268.78 41.24 266.04 40.37"/><polygon class="br" points="275.88 42.43 270.51 42.52 270.74 41.65 275.88 42.43"/><polygon class="br" points="275.98 39.45 272.03 39.98 272.24 38.42 273.03 37.21 274.63 36.76 276.14 37.76 275.98 39.45"/><polygon class="br" points="267.08 37.58 268.41 39.16 269.56 37.46 269.76 36.76 268.42 35.3 267.26 35.67 267.08 37.58"/><polygon class="ah" points="271.53 28.63 273.15 33.73 268.19 32.71 271.53 28.63"/><polygon class="bs" points="282.95 41.09 280.49 44.81 279 43.16 281.56 38.81 279.2 34.96 283.49 32.04 287.79 43.09 285.62 43.89 284.53 43.68 283.79 42.46 283.49 41.52 282.95 41.09"/><polygon class="bg" points="287.79 43.09 281.82 47.41 284.53 43.68 287.79 43.09"/><polygon class="bs" points="292.9 44.87 287.79 43.09 281.82 47.41 279.96 49.98 292.9 44.87"/><polygon class="p" points="284.17 33.79 292.9 44.87 289.87 35.95 284.17 33.79"/><path class="bp" d="M269.56,38.09l1.94.42-.76,3.14L276,42.77l.52-2.08,6.4.4.84,1.37.29-2L277,38.79l-12.15-2.55-1,4,4.86,1Zm2.22,2.9.56-2.31,3.64.77-.58,2.31Zm-6.26-3.74,3.2.67-.58,2.31L265,39.56Z"/><polygon class="ap" points="276.66 50.67 272.63 53.29 270.51 49.17 276.66 50.67"/><polygon class="bt" points="273.33 54.66 274.37 57.35 276.66 55.23 278.18 52.43 273.33 54.66"/><polygon class="bt" points="272.03 52.12 273.33 54.66 270.02 56.1 272.03 52.12"/><polygon class="bm" points="278.18 52.43 278.18 56.27 274.37 57.35 278.18 52.43"/><polygon class="bu" points="265.7 62.1 263.15 55.09 259.45 55.81 260.22 59.83 265.7 62.1"/><polygon class="bv" points="281.58 54.12 281.03 61.93 276.28 63.66 277.7 58.31 281.58 54.12"/><circle class="bw" cx="267.24" cy="38.59" r="0.59"/><circle class="bw" cx="273.19" cy="39.79" r="0.59"/><polygon class="bx" points="276.14 37.76 275.15 37.72 274.41 37.02 273.03 37.21 274.81 36.52 276.14 37.76"/><polygon class="bx" points="269.76 36.76 268.98 36.62 268.33 35.52 267.26 35.67 268.63 35.06 269.76 36.76"/><polygon class="aq" points="260.89 56.37 262.57 56.91 263.31 55.51 262.81 54.12 261.3 54.12 260.89 56.37"/><polygon class="by" points="260.78 52.51 270.42 55.53 269.1 57.38 261.39 54.89 260.78 52.51"/><polygon class="by" points="268.01 59.63 268.29 62.51 270.02 62.51 270.15 58.6 268.01 59.63"/><polygon class="by" points="259.89 58.09 258.77 59.51 256.7 58.71 258.71 55.1 259.89 58.09"/><polygon class="ao" points="260.78 52.51 262.43 55.23 259.89 58.09 256.8 55.27 260.78 52.51"/><polygon class="ao" points="270.74 54.66 267.26 56.79 268.01 59.63 269.76 59.63 271.06 56.19 270.74 54.66"/><polygon class="aq" points="274.37 57.35 270.74 54.66 269.76 59.63 272.24 60.05 273.33 59.48 274.37 57.35"/><polygon class="bu" points="281.03 61.93 274.37 57.35 272.24 60.05 276.87 65.29 281.03 61.93"/><polygon class="bb" points="261.76 26.69 252.68 55.52 254.21 57.63 264.69 26.99 261.76 26.69"/><polygon class="bb" points="281.82 32.78 273.33 62.94 275.43 63.66 284.17 33.79 284.81 31.18 281.82 32.78"/><polygon class="bb" points="301.33 24.63 304.5 48.91 301.93 48.91 298.28 24.91 301.33 24.63"/><polygon class="k" points="261.76 26.69 283 19.23 301.33 24.63 284.17 33.79 261.76 26.69"/><polygon class="q" points="275.43 63.66 284.53 62.51 295.56 52.43 304.32 47.54 310.43 44.3 309.65 49.98 299.7 54.66 293.8 67.97 267.83 78.67 261.17 77.45 259.45 71.93 275.43 63.66"/><polygon class="p" points="275.43 63.66 279.28 69.34 291.71 64.9 295.56 52.43 275.43 63.66"/><polygon class="ah" points="290.97 57.97 287.47 59.74 287.41 60.87 290.43 59.57 290.97 57.97"/><polygon class="bz" points="270.86 26.69 283.19 22.14 292.9 25.21 282.56 30.18 270.86 26.69"/><polygon class="bc" points="252.68 55.52 241.41 63.87 251.68 69.34 262.57 72.27 275.43 63.66 269.76 62.92 268.15 61.05 257.51 57.24 255.24 57.82 252.68 55.52"/><polygon class="ah" points="241.41 63.87 242.32 69.89 261.17 77.45 262.57 72.27 241.41 63.87"/><polygon class="ca" points="243.87 66.97 247.78 68.57 247.6 70.23 244.17 68.93 243.87 66.97"/><polygon class="ca" points="255.63 71.43 260.31 73.41 259.78 75.07 255.23 73.12 255.63 71.43"/><polygon class="cb" points="257.51 57.24 252.68 55.52 253.11 66.8 275.43 63.66 268.15 61.05 256.7 62.68 257.51 57.24"/><polygon class="j" points="115.28 140.43 125.69 143 129.29 149.58 131.97 148.38 136.58 149.58 151.82 146.54 150.1 144.38 156.88 139.6 171.4 141.42 175.42 144.38 171.55 148.17 176.83 152.57 201.01 147.81 196.63 145.16 190.08 137.51 200.59 134.38 199.59 132.29 176.5 123.9 156.24 121.02 141.82 124.95 131.5 138.81 127.38 135.6 122.07 132.46 115.9 134.61 115.28 140.43"/><polygon class="cc" points="174.54 136.32 142.28 122.67 141.52 103.56 177.56 117.18 174.54 136.32"/><polygon class="cd" points="200.54 106.12 199.44 126.51 174.54 136.32 173.82 118.31 183.33 111.03 200.54 106.12"/><polygon class="ce" points="200.54 106.12 166.01 92.86 141.52 103.56 173.82 118.31 200.54 106.12"/><polygon class="cf" points="179.76 120.8 180.2 129.8 194.75 124.09 194.92 112.88 179.76 120.8"/><polygon class="cg" points="146.98 110.67 168.94 120.89 169.74 130.13 147.25 120.4 146.98 110.67"/><polygon class="cd" points="159.07 98.6 161 99.41 166.86 101.33 171.81 99.51 172.53 98.41 166.24 95.69 159.07 98.6"/><polygon class="cc" points="166.24 95.69 165.99 98.2 166.6 100.78 171.81 99.51 174.12 98.41 166.24 95.69"/><polygon class="ch" points="161 99.41 162.94 97.97 164.72 98.99 166.03 99.31 167.49 99.06 169.14 99.43 169.45 100.65 166.86 101.89 161 99.41"/><polygon class="ci" points="162.94 97.97 162.94 100.23 164.72 98.99 166.09 100.65 167.49 99.06 169.45 100.65 171.81 99.51 167.49 99.06 165.99 98.2 164.72 98.99 162.94 97.97"/><polygon class="cd" points="161.03 108.01 167.37 105.36 155.92 100.18 148.35 103.56 150.1 104.32 161.03 108.01"/><polygon class="cc" points="155.92 100.18 155.73 104.78 163.16 107.21 166.92 106.33 168.95 105.41 155.92 100.18"/><polygon class="z" points="150.1 104.32 150.99 102.85 153.01 103.56 155.56 103.01 156.41 103.92 158.98 102.92 160.81 103.92 160.49 105.14 162.23 105.74 163.82 104.81 163.16 108.01 161.03 109.02 158.3 107.84 156.61 106.53 154.23 106.09 150.1 104.32"/><polygon class="cj" points="150.99 102.85 152.3 105.28 154.21 103.69 155.61 105.83 156.41 103.92 155.82 102.5 153.01 103.12 150.99 102.85"/><polygon class="cj" points="160.81 103.92 158.05 105.36 157.92 103.81 156.41 103.92 159.07 102.65 160.81 103.92"/><polygon class="cj" points="154.23 106.09 158.05 105.36 158.3 107.84 154.23 106.09"/><polygon class="cj" points="166.92 106.33 163.82 104.81 162.58 107.08 162.23 105.74 160.49 105.14 158.19 106.74 162.58 107.08 163.16 108.01 166.92 106.33"/><polygon class="cd" points="163.82 110.32 171.8 106.53 181.13 110.67 173.76 113.92 165.81 111.2 163.82 110.32"/><polygon class="cc" points="171.8 106.53 172.53 111.24 178.86 112.56 182.94 110.78 171.8 106.53"/><polygon class="b" points="167.37 111.09 167.81 109.34 172.25 109.43 173.69 111.47 177.37 110.97 177.06 113.35 173.82 114.76 168.68 112.47 167.37 111.09"/><polygon class="ck" points="165.81 111.2 167.81 109.34 169.45 110.83 172.25 109.43 174.3 110.94 177.37 110.97 178.86 112.56 177.06 113.35 175.36 112.16 173.82 114.76 172.42 111.18 168.68 112.47 165.81 111.2"/><polygon class="cd" points="169.75 103.33 177.38 99.6 182.03 102.17 175.74 105.25 171.72 104.17 169.75 103.33"/><polygon class="cc" points="177.38 99.6 177.11 103.19 180.4 103.56 183.71 102.01 177.38 99.6"/><polygon class="v" points="171.72 104.17 173.84 102.65 176.04 102.85 177.21 101.88 179.54 102.23 180.4 103.56 175.6 105.82 171.72 104.17"/><polygon class="w" points="171.72 104.17 174.8 103.85 176.04 102.85 177.11 104.09 178.5 103.33 179.76 103.87 175.6 105.82 171.72 104.17"/><polygon class="cd" points="178.39 106.94 187.05 103.19 192.15 105.93 184.8 109.21 180.56 107.9 178.39 106.94"/><polygon class="cc" points="187.05 103.19 186.85 106.88 189.81 107.58 193.96 105.82 187.05 103.19"/><polygon class="s" points="180.56 107.9 182.21 106.41 184.11 107.1 186.74 106.12 189.81 107.58 184.72 109.74 180.56 107.9"/><polygon class="r" points="182.21 106.41 182.62 108.81 184.11 107.1 186.18 106.83 184.86 108.01 187.18 108.69 187.37 107.16 189.81 107.58 186.93 105.58 184.15 106.81 182.21 106.41"/><polygon class="z" points="202.65 87.12 200.59 134.38 198.44 134.4 199.86 90.9 200.92 85.08 202.65 87.12"/><polygon class="z" points="171.51 100.84 173.61 141.42 175.87 141.42 173.65 98.82 172.67 96.28 171.51 100.84"/><polygon class="z" points="140.3 84.92 141.39 131.2 143.52 131.2 142.43 88.46 142.19 84.19 140.3 84.92"/><polygon class="w" points="139.98 77.5 140.3 84.92 142.43 88.46 144.45 86.65 149.39 88.71 151.54 92.17 153.93 90.6 158.56 92.53 161.21 96.09 163.4 94.55 168.49 96.67 171.51 100.84 173.65 98.82 174.8 93.78 174.95 88.69 139.98 77.5"/><polygon class="b" points="203.04 77.97 202.65 87.12 199.86 90.9 197.04 89.39 192.05 91.4 189.92 95.61 186.56 93.61 180.4 96.09 177.38 100.65 173.65 98.82 173.11 90.53 185.1 81.17 203.04 77.97"/><polygon class="cl" points="144.25 78.88 144.45 86.65 147.14 90.38 149.39 88.71 149.71 80.11 144.25 78.88"/><polygon class="cl" points="153.74 81.78 153.95 90.55 156.14 94.23 158.56 92.53 158.74 83.51 153.74 81.78"/><polygon class="cl" points="162.75 85.08 163.4 94.55 165.99 98.2 168.49 96.67 168.05 87.26 162.75 85.08"/><polygon class="v" points="179.93 85.91 180.4 96.09 183.42 97.97 186.56 93.61 186.74 83.25 179.93 85.91"/><polygon class="v" points="191.91 81.46 197.58 79.31 197.04 89.39 194.85 92.78 192.05 91.4 191.91 81.46"/><polygon class="z" points="139.98 77.5 173.11 90.53 203.04 77.97 170.6 66.15 139.98 77.5"/><polygon class="cm" points="152.97 77.03 164.15 74.51 170.16 70.38 190 78.34 179.03 80.86 171.97 85.55 152.97 77.03"/><polygon class="cj" points="170.16 70.38 171.97 85.55 190 78.34 152.97 77.03 170.16 70.38"/><polygon class="cn" points="171.4 141.42 182.27 142.71 180.56 151.61 171.55 148.17 171.4 141.42"/><polygon class="co" points="181.08 145.94 188.93 139.11 196.34 139.71 196.63 145.16 180.56 151.61 181.08 145.94"/><polygon class="cp" points="171.34 138.72 171.4 141.42 181.08 145.94 182.13 142.73 171.34 138.72"/><polygon class="ch" points="181.08 145.94 187.18 143.45 187.85 142.44 188.71 142.82 196.34 139.71 196.22 137.21 187.49 139.55 181.29 143.69 181.08 145.94"/><polygon class="cj" points="178.3 136.75 177.92 133.12 179.93 132.73 180.04 136.62 178.3 136.75"/><polygon class="ci" points="171.34 138.72 186.44 133.92 196.22 137.21 181.29 143.69 171.34 138.72"/><polygon class="cj" points="188.71 142.82 188.17 136.04 186.24 136.09 186.74 137.51 187.18 143.45 188.71 142.82"/><polygon class="z" points="179.76 132.29 188.17 136.04 186.74 137.51 177.92 133.12 179.76 132.29"/><polygon class="cq" points="135.14 138.85 132.78 138.31 132.37 134.02 134.62 132.87 135.14 138.85"/><polygon class="cm" points="118.89 109.98 117.06 109.86 106.5 116.55 108.45 117.97 114.93 115.3 118.89 109.98"/><polygon class="aa" points="115.28 140.43 117.5 138.52 118.22 133.41 115.45 134.05 115.28 140.43"/><polygon class="cm" points="114.97 132.46 126.99 135.96 132.5 132.96 135 128.47 123.7 123.62 120.12 125.21 114.97 132.46"/><polygon class="cj" points="118.89 109.98 108.11 116.94 114.97 132.46 117.88 129.52 119.1 125.99 121.76 125.6 123.7 123.62 118.89 109.98"/><polygon class="z" points="126.99 135.96 115.34 131.94 108.11 116.94 106.5 116.55 114.11 134.3 113.11 139.65 115.28 140.43 116.49 134.97 125.25 137.34 125.69 143 128.05 143.6 127.81 138.05 126.99 135.96"/><polygon class="aa" points="135.14 138.85 136.83 137.38 135 128.47 126.99 135.96 128.05 143.6 130.06 141.87 129.41 137.54 134.37 133.94 135.14 138.85"/><polygon class="cj" points="121.3 125.6 130.46 128.93 125.88 132.46 117.88 129.52 119.07 127.41 121.3 125.6"/><polygon class="z" points="117.88 129.52 112.95 118.19 118.07 115.01 121.76 125.6 117.88 129.52"/><polygon class="cr" points="142.16 143.07 142.16 145.37 146.91 145.65 151.82 145.37 146.84 140.65 144.17 140.79 142.16 143.07"/><polygon class="cs" points="139.15 134.46 140.1 137.18 144.8 137.84 147.15 133.73 147.28 130.73 139.15 134.46"/><polygon class="cr" points="134.78 144.38 136.58 148.38 133.33 148.98 129.29 148.38 129.74 145.94 130.57 145.15 134.78 144.38"/><polygon class="cs" points="128.89 126.91 129.46 139.33 131.9 143.69 138.72 135.22 139.69 133.31 132.22 127.31 128.89 126.91"/><rect class="ct" x="129.29" y="148.38" width="7.29" height="1.2"/><rect class="ct" x="142.16" y="145.34" width="9.66" height="1.2"/><polygon class="cu" points="138.72 135.22 129.46 139.33 129.74 145.94 134.78 144.38 138.72 135.22"/><polygon class="cu" points="147.15 133.73 140.1 137.18 142.16 143.07 146.84 140.65 147.15 133.73"/><polygon class="cv" points="131.61 128.33 128.89 126.91 131.61 125.13 133.33 127.1 131.61 128.33"/><polygon class="cw" points="158.34 110.31 163.28 109 162.46 113.13 159.5 114.83 158.66 112.78 158.34 110.31"/><polygon class="br" points="158.34 110.31 159.5 114.83 156.88 115.94 155.52 113 158.34 110.31"/><polygon class="cw" points="155.68 111.71 157.64 108.8 158.66 109.05 157.77 112.6 155.68 113.94 155.68 111.71"/><polygon class="ci" points="147.91 107.58 152.22 112.52 152.39 115.94 148.86 116.77 145.25 115.91 147.91 107.58"/><polygon class="cx" points="155.68 111.71 156.88 115.94 148 121.53 148.86 116.77 152.22 112.52 155.68 111.71"/><polygon class="cx" points="131.22 108.8 129.64 109.56 127.82 113.06 130.06 121.28 134.43 126.39 147.57 122.31 148.86 116.77 147.91 107.58 131.22 108.8"/><polygon class="cy" points="138.25 112.22 143.07 112.54 141.6 109.73 139.41 109.68 131.22 108.8 134.48 114.61 138.25 112.22"/><polygon class="e" points="131.82 116.77 134.78 116.68 144.69 114.13 145.88 111.45 148.86 116.77 149.33 121.47 148.24 132.17 133.8 132.86 131.12 121.02 131.82 116.77"/><polygon class="g" points="129.64 109.56 134.78 116.68 131.12 121.02 126.91 110.86 129.64 109.56"/><polygon class="g" points="144.47 107.38 147.91 107.58 148.86 116.77 144.69 114.13 144.47 107.38"/><polygon class="cw" points="133.66 88.46 140.15 89.52 144.44 86.04 147.91 107.58 141.5 109.25 135.35 109.85 133.73 106.94 129.71 103.22 127.49 99.93 130.24 97.26 132.68 100.91 134.17 99.64 128.43 91.72 133.66 88.46"/><polygon class="br" points="133.66 88.46 137.32 109.45 138.86 110.41 136.08 111.17 131.22 108.8 129.72 103.23 131.68 102 132.59 101.31 134.42 99.88 128.73 91.5 133.66 88.46"/><polygon class="bo" points="131.12 101.14 130.08 99.38 128.78 100.22 131.12 101.14"/><polygon class="bo" points="129.71 103.22 132.59 101.31 130.28 105.31 129.71 103.22"/><polygon class="bo" points="142.88 99.29 141.94 100.45 140.75 99.65 142.88 99.29"/><polygon class="br" points="137.07 95 138.88 95.38 140.75 99.65 140.59 96.06 139.69 93.66 137.07 95"/><polygon class="br" points="141.84 93.33 141.44 95.63 142.56 97.45 143.38 94.17 144.68 93.3 141.84 93.33"/><polygon class="bo" points="137.32 109.45 136.08 111.17 138.25 112.22 141.6 109.73 147.91 107.58 137.32 109.45"/><polygon class="cz" points="141.69 92.51 144.53 92.38 144.68 93.3 141.84 93.33 141.69 92.51"/><polygon class="cz" points="139.55 92.84 136.77 94.13 137.07 95 139.69 93.66 139.55 92.84"/><polygon class="bo" points="137.32 102.36 145.88 100.93 142.59 104.05 137.32 102.36"/><polygon class="da" points="139.62 102.5 144.23 101.71 142.42 103.42 139.62 102.5"/><polygon class="cz" points="134.91 83.6 129.19 87.24 131.61 88.58 133.66 88.46 140.37 90.07 138.21 86.66 134.91 83.6"/><polygon class="db" points="129.19 87.24 124.56 90.38 127.37 91.58 129.17 91.65 133.66 88.46 129.19 87.24"/><polygon class="cz" points="124.56 90.38 127.49 99.93 130.34 97.94 132.59 101.31 134.72 99.88 129.17 91.65 124.56 90.38"/><polygon class="cv" points="140.37 90.07 134.91 83.6 144.44 86.04 140.37 90.07"/><path class="bw" d="M143.24,94.34a.65.65,0,0,0-.3.91.68.68,0,0,0,.92.31.69.69,0,0,0,.29-.93A.66.66,0,0,0,143.24,94.34Z"/><path class="bw" d="M138.28,95.36a.68.68,0,0,0-.3.92.68.68,0,1,0,1.22-.62A.68.68,0,0,0,138.28,95.36Z"/><polygon class="bn" points="139.69 93.66 141.84 93.33 142.88 99.29 140.75 99.65 139.69 93.66"/><polygon class="f" points="149.33 121.47 131.5 126.77 132.15 136.37 149.8 133.26 149.33 121.47"/><polygon class="dc" points="141.29 123.71 147.55 120.41 149.06 120.79 138.89 126.07 135.97 127.52 135.5 126.52 141.29 123.71"/><polygon class="ci" points="126.91 110.86 125.64 127.1 131.4 124.54 131.12 121.02 126.91 110.86"/><polygon class="cx" points="131.12 121.02 134.95 122.46 135.49 124.49 134.39 126.61 125.64 127.1 131.12 121.02"/><polygon class="cw" points="134.95 122.46 134.39 126.61 135.5 126.52 137.14 124.23 137.06 121.93 134.95 122.46"/><polygon class="br" points="137.06 121.93 141.29 123.71 138.89 126.07 135.5 126.52 137.06 121.93"/><polygon class="dd" points="147.55 120.41 148.93 117.48 153.19 115.44 155.52 119.82 150.81 121.8 147.55 120.41"/><polygon class="t" points="149.78 118.81 152.96 117.41 153.25 117.79 149.94 119.23 149.78 118.81"/><polygon class="t" points="150.34 119.86 153.6 118.44 153.89 118.88 150.54 120.28 150.34 119.86"/><polygon class="j" points="277.8 167.61 273.1 171.07 268.13 169.91 263.08 169.16 255.32 174.46 254.52 172.75 251.67 174.46 246.13 180.91 235.59 181.62 219 174.74 198.44 181.69 217.54 187.07 233.49 183.32 246.92 181.67 255.32 177.67 258.96 178.47 261.12 177.81 263.27 178.47 275.04 173.03 278.42 169.91 284.82 168.84 277.8 167.61"/><polygon class="de" points="280.71 149.32 285.91 154 279.69 153.54 280.71 149.32"/><polygon class="df" points="281 158.8 280.71 149.32 276.78 156.01 278.06 157.74 281 158.8"/><polygon class="de" points="276.78 156.01 281 158.8 275.84 161.34 276.78 156.01"/><polygon class="df" points="269.67 165.76 268.13 169.91 265.94 167.38 269.67 165.76"/><polygon class="dg" points="268.13 169.91 264.5 169.91 265.94 166.94 268.13 169.91"/><polygon class="ab" points="274.2 165.29 273.12 170.04 273.09 171.53 275.04 173.03 277.8 167.61 274.2 165.29"/><polygon class="ab" points="262.74 160.5 266.6 158.32 273.44 159.27 271.53 165.76 262.39 171.15 262.74 160.5"/><polygon class="df" points="276.78 156.01 273.44 157.43 271.93 160.05 271.53 165.76 277.8 167.61 276.78 156.01"/><polygon class="ac" points="260.07 156.46 270.55 153.17 276.78 156.01 271.93 160.05 262.74 160.5 260.07 156.46"/><polygon class="df" points="252.07 167.03 253.22 171.96 253.5 173.42 255.32 174.46 256.96 166.48 252.07 167.03"/><polygon class="dh" points="264.91 147.2 261.23 154.48 256.68 153.39 259.52 150.49 264.91 147.2"/><polygon class="dh" points="247.85 143.96 249.75 153.19 252.1 150.01 247.85 143.96"/><polygon class="df" points="256.96 151.21 259.46 147.78 264.91 147.2 258.34 153.19 256.96 151.21"/><polygon class="df" points="253.79 150.65 252.35 146.25 247.85 143.96 251.27 150.21 252.1 151.6 253.79 150.65"/><polygon class="ah" points="231.99 171.83 247.05 173.83 244.2 175.54 231.19 173.03 231.54 171.29 231.99 171.83"/><polygon class="ax" points="230.2 168.06 231.19 173.03 231.99 171.83 231.74 167.03 230.99 166.19 230.2 168.06"/><polygon class="aq" points="206.72 148.36 204.61 146.25 203.09 146.81 201.56 148.92 203.39 150.83 205.2 150.83 206.72 148.36"/><polygon class="ao" points="201.82 142.59 200.36 145.3 201.56 148.92 204.61 146.25 201.82 142.59"/><polygon class="di" points="230.99 149.07 225.65 158.26 229.93 161.43 234.68 158.8 230.99 149.07"/><polygon class="di" points="211.44 144.33 206.54 151.95 207.25 155.41 208.53 156.26 211.75 155.33 212.36 149.23 211.44 144.33"/><polygon class="dj" points="211.95 164.79 211.08 171.07 213.24 174.56 217.16 173.91 220.97 168.11 211.95 164.79"/><polygon class="dk" points="217.16 173.91 211.08 171.07 210.43 176.15 212.43 178.05 214.77 177.81 217.16 173.91"/><polygon class="dl" points="210.31 176.64 208.74 177.62 206.04 179.96 210.94 180.32 214.59 179.96 214.77 177.81 211.37 175.81 210.31 176.64"/><polygon class="dm" points="211.53 176.57 209.89 178.05 208.74 177.62 210.43 176.15 211.08 175.81 211.53 176.57"/><polygon class="dn" points="217.68 169.44 218.77 174.63 222.21 176.42 225.65 175.49 227.61 165.05 220.36 167.18 217.68 169.44"/><polygon class="dj" points="225.65 175.49 218.77 174.63 220.19 179.56 222.48 180.71 224.68 180.39 225.65 175.49"/><polygon class="dl" points="220.19 179.56 218.77 182.89 222.27 183.38 225.1 182.89 224.68 180.39 223.17 179.42 222.42 179.22 221.68 179.22 220.19 179.56"/><rect class="do" x="218.77" y="182.89" width="6.33" height="0.98" transform="translate(443.87 366.76) rotate(-180)"/><polygon class="dm" points="223.17 180.09 222.94 181.67 221.12 181.67 221.72 179.83 222.42 179.67 223.17 180.09"/><rect class="do" x="206.04" y="179.94" width="8.55" height="0.98" transform="translate(420.62 360.87) rotate(-180)"/><polygon class="dp" points="211.95 164.79 217.68 169.44 227.61 165.05 220.72 164.1 217.44 162.07 215.43 163.59 211.95 164.79"/><polygon class="dm" points="212.98 145.76 215.43 144.68 217.1 146.98 218.45 150.21 222.9 148.69 227.3 147.72 229.36 150.01 227.74 159.05 227.3 160.39 227.61 165.05 219.27 166.48 217.44 162.31 215.2 166 211.95 164.79 211.75 155.33 212.98 145.76"/><polygon class="dq" points="228.63 144.06 226.96 142.32 226.71 143.91 225.7 145.59 228.63 144.06"/><polygon class="dq" points="217.19 140.39 213.9 142.12 215.43 144.68 218.45 150.21 218.29 144.59 217.19 140.39"/><polygon class="dn" points="227.74 159.05 227.3 147.72 230.99 149.07 227.74 159.05"/><polygon class="dn" points="211.44 144.33 211.75 155.33 215.43 144.68 211.44 144.33"/><rect class="dr" x="222.5" y="151.28" width="0.88" height="6.4" transform="translate(35.34 350.37) rotate(-80.96)"/><polygon class="ao" points="228.49 126.65 218.93 125.65 215.99 124.22 212.78 139.03 217.19 140.39 217.79 142.3 218.41 143.56 222.45 145.76 225.78 143.66 230.83 137.9 232.86 134.74 233.43 131.5 228.49 126.65"/><polygon class="aq" points="227.4 126.54 222.87 142.04 217.19 140.39 217.71 142.37 217.67 144.33 218.45 150.21 223.55 147.27 226.09 145.3 229.56 139.88 229.67 138.58 230.83 137.9 228.33 136.02 230.46 133 232.86 134.74 233.26 132.42 229.78 127.92 228.49 126.65 227.4 126.54"/><polygon class="aq" points="218.3 134.06 221.07 130.11 224.58 128.97 222.09 127.75 220.56 127.74 219.53 128.99 218.06 131.63 218.3 134.06"/><polygon class="aq" points="218.02 128.63 217.86 127.35 216.69 126.53 215.47 126.62 217.34 132.5 218.02 128.63"/><polygon class="ap" points="228.33 136.02 230.83 137.9 229.56 139.88 228.33 136.02"/><polygon class="ap" points="219 131.16 223.57 134.99 225.46 133.17 226.26 133.15 226.63 132.6 224.58 131.61 219 131.16"/><polygon class="ap" points="217.48 130.87 214.33 131.9 214.46 131.28 215.07 130.18 217.48 130.87"/><polygon class="di" points="229.51 128.32 224.86 135.24 227.28 137.51 230.46 133 232.86 134.74 234.37 132.42 231.94 129.48 229.51 128.32"/><rect class="bn" x="215.55" y="130.57" width="5.22" height="1.55" transform="translate(39.65 312.94) rotate(-76.54)"/><polygon class="ap" points="229.63 135.78 230.6 134.09 232.04 135.09 229.63 135.78"/><polygon class="di" points="224.58 128.97 221.8 127.08 220.56 127.74 224.58 128.97"/><polygon class="di" points="217.86 127.35 216.66 126.1 215.47 126.62 217.86 127.35"/><polygon class="ap" points="214.41 134.51 222.88 136.56 219.67 138.18 215.99 137.33 214.41 134.51"/><polygon class="as" points="215.38 135.29 221.33 136.73 219.55 137.72 216.37 136.97 215.38 135.29"/><polygon class="ap" points="216.79 133.7 217.44 134.77 218.3 134.06 216.79 133.7"/><polygon class="dq" points="226.26 133.15 230.19 133.38 230.46 133 228.36 132.42 226.63 132.61 226.26 133.15"/><polygon class="ap" points="217.19 140.39 224.62 142.55 217.67 144.33 217.19 140.39"/><polygon class="dn" points="218.93 119.77 232.86 123.25 235.51 128.38 226.63 124.22 218.93 119.77"/><polygon class="ds" points="227.4 126.54 234.37 132.42 235.51 128.38 229.16 124.45 227.4 126.54"/><polygon class="di" points="227.4 126.54 229.16 125.86 229.16 124.45 218.93 119.77 218.61 122.78 218.93 125.65 227.4 126.54"/><polygon class="dn" points="218.93 119.77 212.05 118.34 215.99 124.22 218.93 125.65 218.93 119.77"/><polygon class="dt" points="225.12 130.33 232.67 132.15 232.86 134.74 230.46 133 224.58 132.38 224.65 131.24 225.12 130.33"/><polygon class="dt" points="218.02 128.63 219.53 128.99 219.6 129.63 219.21 130.3 217.71 129.93 217.54 129.38 218.02 128.63"/><path class="ab" d="M213.32,127.51l4.7,1.12-.54,2.24-5.12.7,1-4.06Zm6.2,1.48,5.6,1.34-1.08,4.1-5-3.27Z"/><polygon class="dn" points="222.27 145.88 228.63 144.06 227.3 147.72 218.45 150.21 222.27 145.88"/><polygon class="du" points="227.3 160.39 218.41 156.46 217.44 156.46 211.84 159.34 217.44 162.07 227.3 160.39"/><polygon class="dn" points="218.45 150.21 218.41 156.46 217.44 162.31 217.44 156.46 218.45 150.21"/><polygon class="dn" points="234.68 158.8 231.54 159.63 228.75 162.07 229.68 164.5 232.96 163.65 234.68 158.8"/><polygon class="dp" points="225.27 177.42 219.57 177.39 220.19 179.56 224.68 180.39 225.27 177.42"/><polygon class="dv" points="223.16 180.11 223.16 178.49 221.63 178.34 221.72 179.84 223.16 180.11"/><polygon class="dp" points="215.9 175.96 210.76 173.54 210.43 176.15 214.77 177.81 215.9 175.96"/><polygon class="dv" points="211.53 176.57 211.84 174.93 210.63 174.56 210.43 176.15 211.53 176.57"/><polygon class="ao" points="206.72 148.36 206.29 143.92 205.28 143.91 204.27 147.46 205.18 150.49 206.72 148.36"/><polygon class="dn" points="211.75 155.33 206.72 148.36 203.39 150.83 207.32 158.6 211.75 155.33"/><polygon class="ax" points="230.2 168.06 227.61 165.05 228.93 161.28 230.44 164.25 230.2 168.06"/><polygon class="aq" points="231.54 159.63 229.64 157.96 227.74 159.05 229.05 160.05 231.54 159.63"/><polygon class="ao" points="230.82 160.99 229.15 159.27 227.09 158.96 226.31 162.93 230.2 164.63 230.82 160.99"/><polygon class="ah" points="231.54 159.63 231.74 167.03 230.2 168.06 229.15 159.27 231.54 159.63"/><polygon class="ax" points="246.56 176 252.07 167.03 252.07 165.3 244.2 175.54 246.56 176"/><polygon class="ac" points="251.27 150.21 248.65 154.19 251.1 155.58 253.85 155.25 256.96 151.21 251.27 150.21"/><circle class="bw" cx="251.23" cy="152.72" r="0.58"/><circle class="bw" cx="253.55" cy="153.19" r="0.58"/><polygon class="ab" points="256.96 151.21 253.85 155.25 248.65 154.19 250.16 159.27 250.3 162.07 250.87 163.67 251.97 165.29 252.07 167.03 260.92 173.23 262.74 160.5 262.1 159.69 262.22 158.43 261.23 154.48 256.96 151.21"/><polygon class="df" points="247.45 162.22 250.87 163.67 255.9 157.96 249.68 161.43 247.45 162.22"/><polygon class="aw" points="254.13 157.3 255.9 157.96 250.3 162.07 249.19 162.07 248.3 160.28 250.16 159.27 254.13 157.3"/><polygon class="p" points="250.16 159.27 249.19 162.07 247.32 164.5 245.19 161.65 247.05 158.6 248.65 158.19 250.16 159.27"/><polygon class="ah" points="245.19 161.65 249.19 162.07 248.43 166.48 245.76 165.61 245.19 161.65"/><polygon class="ac" points="248.65 154.19 250.16 159.27 247.05 158.6 246.7 157.3 246.25 158.46 243.26 157.61 245.19 153.54 247.05 154.65 248.65 154.19"/><polygon class="de" points="245.19 153.54 246.7 157.3 248.65 154.19 245.19 153.54"/><polygon class="df" points="262.74 160.5 259.94 172.55 260.8 175.75 260.94 177.11 263.27 178.47 264.5 169.91 262.74 160.5"/><polygon class="dg" points="253.22 171.96 251.67 174.46 255.32 174.46 253.22 171.96"/><polygon class="dg" points="260.8 175.75 258.96 178.47 263.27 178.47 260.8 175.75"/><polygon class="dg" points="273.12 170.04 271.13 173.03 275.04 173.03 273.12 170.04"/><polygon class="dw" points="262.74 160.5 254.29 167.29 253.18 166.23 252.07 167.03 250.87 163.67 253.23 165.05 262.22 158.43 262.74 160.5"/><polygon class="bz" points="252.07 167.03 253.23 165.05 254.29 167.29 252.07 167.03"/><polygon class="dx" points="29.49 96.67 47.7 90.15 58.03 91.31 70.14 97.75 45.72 103.28 29.49 96.67"/><polygon class="u" points="48.97 69.46 60.58 62.44 61.01 63.26 48.71 71.16 48.97 69.46"/><polygon class="u" points="47.6 66.39 52.42 55.95 53.46 56.15 49.43 67.03 48.52 67.32 47.6 66.39"/><polygon class="u" points="45.91 65.5 39.86 57.05 39.15 57.7 46.43 69.46 45.91 65.5"/><polygon class="c" points="46.3 98 45.91 65.5 47.6 66.39 48.52 81.22 47.73 98.68 46.3 98"/><polygon class="u" points="47.6 66.39 49.43 67.03 49.04 97.68 47.73 98.68 47.6 66.39"/><polygon class="v" points="28.66 64.17 42.65 61.11 53.46 56.15 58.49 63.7 66.16 63.26 73.2 52.22 68.1 42.39 58.63 38.19 54.86 35.27 54.86 28.74 40.47 26.72 39.31 32.94 36.58 34.81 32.24 39.29 26.62 38.99 17.28 51.82 28.66 64.17"/><polygon class="w" points="17.28 51.82 34.08 57.05 43.32 50.31 53.46 47.91 60.29 51.35 62.6 56.26 72.46 53.92 67.07 63.93 57.15 65.73 52.59 61.4 47.22 57.95 42.65 63.35 28.39 66.16 17.28 51.82"/><polygon class="w" points="40.47 26.72 45.37 41.35 54.86 28.74 58.63 38.19 53.46 47.91 36.58 34.81 40.47 26.72"/><polygon class="y" points="26.62 38.99 36.58 34.81 34.08 57.05 26.62 38.99"/><polygon class="y" points="68.1 42.39 53.46 47.91 62.6 56.26 68.1 42.39"/><polygon class="y" points="53.46 47.91 45.37 41.35 34.08 57.05 53.46 47.91"/><polygon class="x" points="34.08 57.05 42.65 63.35 52.59 61.4 53.46 47.91 34.08 57.05"/><polygon class="x" points="62.6 56.26 57.15 65.73 68.3 64.17 73.2 52.22 62.6 56.26"/><polygon class="dx" points="322.3 87.21 337.15 82.08 355.49 86.11 344.91 92.53 333.7 92.05 322.3 87.21"/><polygon class="u" points="335.49 57.88 328.32 53.99 327.37 55.09 335.4 59.33 335.49 57.88"/><polygon class="u" points="338.13 58.52 350.17 51.83 350.75 52.57 338.92 60.11 338.13 58.52"/><polygon class="u" points="334.75 56.38 329.01 42.13 329.99 41.31 336.8 56.48 336.26 56.92 334.75 56.38"/><polygon class="u" points="339.17 56.09 348.1 47.8 347.61 45.3 336.8 56.48 338.35 57.19 339.17 56.09"/><polygon class="u" points="336.8 56.48 339.7 55.6 338.52 88.8 337.48 89.32 336.31 72.97 336.8 56.48"/><polygon class="e" points="336.34 88.51 334.75 56.38 336.8 56.48 337.48 89.32 336.34 88.51"/><polygon class="v" points="330.02 24.75 343.55 24.32 342.58 30.23 348.1 33.9 358.87 40.77 356.73 51.55 350.29 55.16 341.15 48.57 330.61 54.21 320.85 58.13 313.98 42.77 319.64 36.31 326.63 31.11 330.02 24.75"/><polygon class="w" points="362.28 41.09 353.86 41.31 346.98 45.48 329.24 38.18 313.98 42.77 321.96 56.61 330.45 56.92 337.67 49.82 341.7 51.7 349.67 57.14 357.34 52.66 362.28 41.09"/><polygon class="w" points="343.55 24.32 335.55 31.68 348.1 33.9 343.55 24.32"/><polygon class="y" points="335.55 31.68 329.24 38.18 348.1 33.9 335.55 31.68"/><polygon class="y" points="330.02 24.75 335.55 31.68 319.64 36.31 330.02 24.75"/><polygon class="y" points="348.1 33.9 346.98 45.48 362.28 41.09 348.1 33.9"/><polygon class="x" points="329.24 38.18 330.45 56.92 341.7 51.7 346.98 45.48 329.24 38.18"/><polygon class="x" points="349.67 57.14 362.28 41.09 358.62 54.74 349.67 57.14"/><polygon class="x" points="330.45 56.92 313.98 42.77 320.32 58.96 330.45 56.92"/><polygon class="j" points="73.32 162.03 56.26 165.76 47.78 162.59 49.63 159.61 45.53 158.81 23.21 158.05 20.95 158.05 19.12 159.72 31.91 164.25 30.51 169.84 35.08 169.51 43.99 164.68 51.85 166.72 71.53 174 95.11 169.16 73.32 162.03"/><polygon class="ao" points="67.92 165.28 67.56 166.6 66.29 167.12 64.12 166.68 63.35 165.93 65.76 163.51 66.93 163.47 67.92 165.28"/><polygon class="aq" points="67.74 167.12 67.92 165.28 66.29 167.12 61.92 164.68 60.63 167.12 67.74 167.12"/><polygon class="ao" points="78.09 166.72 79.3 168.25 79.43 169.03 79.38 170.22 78.3 170.68 76.32 170.05 75.09 169.22 76.32 167.1 78.09 166.72"/><polygon class="aq" points="74.67 168.05 73.43 170.68 79.71 170.68 79.43 169.03 78.3 170.68 74.67 168.05"/><polygon class="ap" points="66.36 162.9 67.32 163 68.11 163.43 67.92 165.28 65.76 163.51 66.36 162.9"/><polygon class="ap" points="78.99 166.43 78.22 165.95 76.97 165.98 76.32 167.1 79.3 168.25 78.99 166.43"/><polygon class="dn" points="65.19 150.09 69.22 151.72 73.18 153.96 71.16 159.22 67.33 158.41 63.53 156.82 65.19 150.09"/><polygon class="dm" points="71.16 159.22 69.45 164.09 62.29 161.85 63.83 159.45 63.53 156.82 71.16 159.22"/><polygon class="du" points="70.29 161.72 63.53 156.82 62.29 161.85 70.29 161.72"/><polygon class="dn" points="73.18 153.96 73.28 161.31 77.69 162.27 82.21 161.67 81.7 150.44 76.68 152.17 73.18 153.96"/><polygon class="dm" points="82.21 161.67 81.53 163.93 82.47 166.84 73.36 166.07 73.28 161.31 82.21 161.67"/><polygon class="du" points="82.21 161.67 82.47 166.84 73.32 163.56 82.21 161.67"/><polygon class="ak" points="69.31 130.56 67.52 131.16 66.52 132.11 65.21 131.93 62.75 134.44 63.46 136.73 65.25 139.4 80.89 139.79 82.76 138.22 84.18 136.28 80.67 131.89 79.33 131.72 78.66 131.03 76.64 130.17 73.53 132.4 69.31 130.56"/><polygon class="di" points="65.19 150.09 73.18 153.96 81.7 150.44 80.89 139.79 79.56 138.29 78.23 137.53 67.82 136.96 66.59 137.61 65.25 139.4 65.19 150.09"/><polygon class="dm" points="86.99 135.93 95.51 137.2 98.23 144.49 94.37 150.59 86.6 153.32 78.89 151.6 79.61 144.32 85.1 143.26 86.99 135.93"/><polygon class="aq" points="88.97 139.66 89.9 140.57 91.25 141.42 89.36 144.4 87.25 142.65 88.37 140.97 88.97 139.66"/><polygon class="ap" points="87.92 143.2 88.62 141.11 91.25 141.42 88.97 139.66 87.25 142.65 87.92 143.2"/><polygon class="ao" points="88.62 141.11 91.25 141.42 92 144.24 91.18 144.69 88.62 141.11"/><rect class="dy" x="93.01" y="139.49" width="1.76" height="1.76" transform="translate(-42.63 40.96) rotate(-20.16)"/><rect class="dz" x="94.06" y="142.38" width="1.76" height="1.76" transform="translate(-43.56 41.5) rotate(-20.16)"/><rect class="ea" x="93.01" y="145.63" width="1.76" height="1.76" transform="translate(-44.75 41.35) rotate(-20.17)"/><rect class="eb" x="90.33" y="147.83" width="1.76" height="1.76" transform="translate(-45.67 40.55) rotate(-20.16)"/><rect class="ec" x="87.34" y="148.93" width="1.76" height="1.76" transform="translate(-46.24 39.6) rotate(-20.17)"/><rect class="ed" x="83.96" y="149.01" width="1.76" height="1.76" transform="translate(-46.47 38.43) rotate(-20.16)"/><rect class="ee" x="80.98" y="147.3" width="1.76" height="1.76" transform="translate(-46.06 37.29) rotate(-20.16)"/><polygon class="ao" points="80.89 139.79 85.1 143.26 86.27 138.74 84.18 136.28 80.89 139.79"/><polygon class="ao" points="59.33 137.36 62.75 134.44 65.25 139.4 62.73 140.25 60.42 139.45 59.33 137.36"/><polygon class="dn" points="65.21 131.93 65.25 139.4 67.82 136.96 67.52 131.16 65.21 131.93"/><polygon class="dn" points="78.66 131.03 78.23 137.53 80.89 139.79 80.67 131.89 78.66 131.03"/><rect class="ef" x="69.54" y="139.51" width="7.02" height="7.16"/><polygon class="ds" points="65.23 143.28 66.02 142.71 66.81 144.16 65.76 143.99 65.22 145.26 65.23 143.28"/><polygon class="du" points="69.84 147.54 70.99 148.47 70.81 149.39 69.32 150.49 68.75 148.16 69.84 147.54"/><polygon class="du" points="76.56 145.92 74.72 145.3 74.89 143.81 74.02 143.46 74.54 142.01 75.03 142.19 74.98 142.89 76.12 142.8 76.56 143.9 76.73 144.8 76.56 145.92"/><polygon class="ds" points="72.96 148.03 74.1 147.72 73.84 148.95 73.01 148.82 72.96 148.03"/><polygon class="dl" points="76.56 143.9 78.06 144.12 77.35 145.92 76.56 145.92 76.56 143.9"/><polygon class="ap" points="88.62 141.11 89.36 144.4 90.12 143.2 88.62 141.11"/><polygon class="dv" points="90.12 143.2 91.18 144.69 89.36 144.4 90.12 143.2"/><polygon class="aq" points="62.73 140.25 56.62 134.98 54.59 134.86 54.93 137.25 58.36 141.66 62.73 140.25"/><polygon class="ap" points="56.62 134.98 54.93 137.25 53.39 136.71 54.62 133.53 56.62 134.98"/><polygon class="aq" points="52.01 132.62 50.09 135.39 50.51 135.99 53.23 134.86 55.31 132.4 52.01 132.62"/><polygon class="ak" points="62.02 127.38 54 136.05 53.11 135.35 52.61 134.42 62.02 127.38"/><polygon class="dn" points="50.84 138.29 50.6 139.59 48.41 139.9 48.89 138.75 49.87 138.52 50.45 138.07 50.84 138.29"/><polygon class="di" points="50.51 135.99 49.87 138.52 52.23 137.96 51.45 136.81 50.51 135.99"/><polygon class="eg" points="55.03 134.93 52.23 137.96 50.51 135.99 52.61 134.42 55.03 134.93"/><polygon class="ao" points="55.65 136.28 55.03 134.93 53.09 135.16 52.61 134.42 55.31 132.4 56.62 134.98 55.65 136.28"/><polygon class="du" points="84.54 116.8 75.1 114.51 65.27 111.62 65.4 110.21 66.2 108.14 75.56 112.37 84.54 116.8"/><polygon class="dm" points="66.2 108.14 76.18 110.61 86.27 113.83 85.83 115.13 84.54 116.8 66.2 108.14"/><polygon class="dq" points="77.29 108.52 78.2 111.54 74.2 110.41 77.29 108.52"/><polygon class="dq" points="66.2 108.14 64.61 108.67 62.87 109.94 64.89 113.14 65.34 112.23 65.27 111.62 66.2 108.14"/><polygon class="du" points="66.2 108.14 66.41 106.5 66.02 104.39 63.98 107.42 62.87 109.94 66.2 108.14"/><polygon class="dn" points="66.02 104.39 60.65 107.72 62.87 109.94 66.02 104.39"/><polygon class="di" points="66.2 108.14 66.02 104.39 65.9 102.32 69.79 106.4 69.69 109.13 66.2 108.14"/><polygon class="dn" points="67.13 103.72 71.53 100.82 72.29 102.81 72.58 104.39 71.02 105.74 69.54 106.48 67.13 103.72"/><polygon class="du" points="69.54 106.48 72.58 104.39 73.53 106.75 74.2 110.41 69.69 109.13 69.54 106.48"/><polygon class="du" points="71.53 100.82 77.68 104.08 74.31 104.45 72.58 104.39 71.53 100.82"/><polygon class="dn" points="72.58 104.39 77.68 104.08 76.6 106.52 74.2 110.41 72.58 104.39"/><polygon class="dq" points="87.17 118.05 83.3 118.9 83.9 117.54 84.54 116.8 85.82 117.11 87.17 118.05"/><polygon class="du" points="74.2 110.41 77.12 108.8 78.94 108.02 80.04 107.2 79.58 105.42 78.84 103.99 78.39 102.77 77.68 104.08 74.2 110.41"/><polygon class="dn" points="80.04 107.2 81.72 106.66 83.4 105.34 83.75 103.6 78.84 103.99 80.04 107.2"/><polygon class="di" points="80.04 107.2 83.4 105.34 85.08 107.59 83.95 109.79 82.05 112.64 80.49 109.24 80.04 107.2"/><polygon class="di" points="87.8 114.29 88.56 118.71 84.54 116.8 86.27 113.83 87 113.8 87.8 114.29"/><polygon class="dn" points="85.08 107.59 86.61 109.33 87.15 110.63 85.33 111.43 82.05 112.64 85.08 107.59"/><polygon class="du" points="85.08 107.59 90.45 109.39 87.15 110.63 85.08 107.59"/><polygon class="du" points="87.15 110.63 90.11 114.98 86.27 113.83 82.05 112.64 87.15 110.63"/><polygon class="dn" points="80.04 107.2 82.05 112.64 79.77 115.52 78.2 111.54 77.12 108.8 80.04 107.2"/><polygon class="ao" points="65.27 111.62 61.97 125.16 67.97 127.3 68.76 128.72 69.31 130.56 71.9 132.35 74.04 134.57 77.78 127.68 80.32 123.93 82.35 120.5 82.78 118.8 84.54 116.8 65.27 111.62"/><polygon class="ap" points="78.62 121.92 79.64 120.2 81.3 121.06 79.86 121.74 78.62 121.92"/><polygon class="aq" points="76.91 114.75 71.68 128.59 69.54 128.58 69.31 130.56 74.04 134.57 77.31 129.03 77.68 127.86 78.62 126.15 80.32 123.93 77.17 122.06 78.2 120.1 76.48 119.08 78.69 115.23 76.91 114.75"/><polygon class="aq" points="73.78 116.77 71.94 116.76 69.84 119.61 70.24 116.25 71.41 114.55 73.06 115.66 73.78 116.77"/><polygon class="aq" points="69 113.85 68.16 118.29 67.29 115.19 65.77 114.26 66.64 113.62 69 113.85"/><polygon class="di" points="71.41 114.55 74.28 115.62 73.78 116.77 71.41 114.55"/><polygon class="di" points="69 113.85 66.04 113.03 65.77 114.26 69 113.85"/><polygon class="dq" points="70.39 122.77 68.07 121.19 65.58 121.36 67.57 122.85 70.39 122.77"/><polygon class="dl" points="64.89 120.92 67.65 122.69 71.34 122.8 67.4 123.77 64.89 120.92"/><polygon class="di" points="78.69 115.23 76.48 119.08 78.2 120.1 79.1 118.64 82.35 120.5 84.54 116.8 78.69 115.23"/><polygon class="ap" points="67.97 127.3 73.03 129.06 69.31 130.56 67.97 127.3"/><polygon class="ap" points="77.19 123.12 77.96 126.15 79.56 124.38 77.19 123.12"/><polygon class="ap" points="74.82 125.33 77.31 129.03 78.27 127.38 77.12 126.15 74.82 125.33"/><path class="dq" d="M76.87,121.88l3.45,2.05-2,3.45-3.45-2,2.05-3.45Zm.32,1.24L76.06,125l1.9,1.13,1.13-1.9Z"/><rect class="eh" x="77.12" y="122.32" width="3.07" height="0.98" transform="translate(-67.1 127.7) rotate(-59.28)"/><polygon class="ar" points="69 113.85 71.41 114.55 69.84 119.61 67.48 118.9 69 113.85"/><polygon class="ap" points="67.48 118.9 68.3 120.44 69.84 119.61 67.48 118.9"/><circle class="bw" cx="71.8" cy="118.17" r="0.74"/><path class="aw" d="M66.08,116.52a.74.74,0,1,0,.73-.74A.74.74,0,0,0,66.08,116.52Z"/><polygon class="ei" points="19.12 159.72 17.26 158.7 26.19 125.77 28.24 127.79 22.73 148.58 19.12 159.72"/><polygon class="dw" points="26.2 131.77 19.12 159.72 23.21 158.05 29.04 131.2 26.2 131.77"/><polygon class="ei" points="18.8 108.34 31.26 146.48 27.13 170.16 30.12 171.75 35.4 145.88 43.93 160.84 47.78 162.59 47.78 159.17 32.09 137.52 21.66 107.96 18.8 108.34"/><polygon class="ej" points="24.18 107.59 21.75 107.16 18.8 108.34 20.95 108.99 23.2 110.1 24.18 107.59"/><polygon class="dw" points="20.95 108.99 33.12 143.06 30.12 171.75 35.08 169.51 37.34 145.03 47.78 162.59 53.05 160.38 36.23 139.23 24.18 107.59 20.95 108.99"/><polygon class="ek" points="16.92 121 29.23 157.58 31.43 157.35 30.19 141.26 20.12 120.28 16.92 121"/><polygon class="el" points="37.34 111.31 35.28 110.33 16.92 121 19.4 121.42 27.7 121.38 37.34 111.31"/><polygon class="em" points="19.4 121.42 37.34 111.31 48.52 144.69 31.43 157.35 19.4 121.42"/><polygon class="en" points="38.48 140.63 43.59 137.77 37.59 135.55 37.34 139.9 38.48 140.63"/><polygon class="en" points="37.59 141.46 32.53 141.06 31.43 146.39 37.95 143.09 37.59 141.46"/><polygon class="af" points="34.48 134.98 37.59 141.46 37.91 147.54 39 147.05 38.48 140.63 35.4 134.96 34.87 134.01 34.48 134.98"/><polygon class="ah" points="27.94 124.47 31.49 122.58 33.15 125.77 35.64 122.93 38.84 125.89 37.12 129.21 40.14 132.17 37.59 135.55 34.87 134.01 34.16 137.62 30.25 136.56 30.66 132.94 28 133.89 26.04 130.39 28.77 127.91 27.94 124.47"/><polygon class="p" points="27.94 124.47 32.68 129.33 26.04 130.39 28.24 127.79 27.94 124.47"/><polygon class="p" points="31.49 122.58 32.68 129.33 35.64 122.93 33.33 124.53 31.49 122.58"/><polygon class="p" points="28 133.89 33.02 130.4 30.25 136.56 30.01 133.89 28 133.89"/><polygon class="p" points="34.16 137.62 33.52 130.52 37.59 135.55 35.4 134.96 34.16 137.62"/><polygon class="p" points="40.14 132.17 33.88 129.68 38.84 125.89 38.01 129.03 40.14 132.17"/><polygon class="m" points="31.01 129.6 31.22 127.84 33.67 127.18 35.33 128.57 34.6 131.86 32.3 132.01 31.01 129.6"/><polygon class="l" points="32.4 128.71 33.96 129.19 33.52 130.52 32.4 130.1 32.4 128.71"/><polygon class="j" points="289.35 140.64 293.69 142.22 295.82 141.69 295.8 143.21 300.9 144.15 301.95 145.98 319.35 152.79 321.7 151.67 324.35 152.17 331.48 148.51 337.84 151.67 340.41 158.29 354.73 158.93 358.41 155.62 348.69 150.48 340.24 147.45 337.83 143.06 320.14 137.31 309.39 136.01 298.61 136.53 292.5 137.03 287.45 138.36 287.26 139.76 289.35 140.64"/><polygon class="eo" points="287.26 139.76 289.51 138.99 290.26 134.87 286.55 134.76 287.26 139.76"/><polygon class="eo" points="312.2 134.45 308.96 131.87 295.87 136.41 295.8 143.21 298.46 142.22 298.91 138.8 312.2 134.45"/><polygon class="ep" points="296.58 136.74 291.63 132.59 284.95 131.35 285.48 138.96 287.26 139.76 287.77 135.93 293.97 138.65 293.69 142.22 295.8 143.21 296.58 136.74"/><polygon class="eq" points="284.95 131.35 299.82 125.67 313.37 131.53 296.58 136.74 284.95 131.35"/><polygon class="er" points="315.94 116.5 318.43 123.3 311.58 127.76 311.11 120.23 315.94 116.5"/><polygon class="er" points="299.15 108.44 289.39 113.04 292.5 115.56 295.17 116.51 298.12 116.8 301.01 110.91 299.15 108.44"/><polygon class="bg" points="289.39 113.04 291.77 120.93 293.85 121.15 295.65 120.22 295.17 116.51 289.39 113.04"/><polygon class="aq" points="292.74 124.93 290.26 123.44 292.74 122.01 292.74 124.93"/><polygon class="ao" points="295.65 120.22 296.26 123.17 295.3 123.83 292.74 124.93 291.77 120.93 295.65 120.22"/><polygon class="bg" points="316.99 133.79 313.88 137.64 311.48 139.23 309.19 139.29 309.58 133.04 313.12 132.24 316.99 133.79"/><polygon class="bg" points="310.33 132.59 302.33 134.64 294.43 125.88 301.65 128.29 310.33 132.59"/><polygon class="es" points="303.93 105.14 305.63 104.97 306.57 107.62 305.62 108.83 301.18 107.48 303.93 105.14"/><polygon class="ah" points="309.24 117.69 313.16 115.06 316.24 115.73 310.98 129.31 301.23 127.23 295.3 123.83 300.23 111.56 302.85 111.47 304.21 111.14 309.24 117.69"/><polygon class="bg" points="303.93 113.33 297.81 111.56 299.15 108.44 304.21 111.14 303.93 113.33"/><polygon class="er" points="310.17 123.3 308.36 128.39 300.37 125.6 302.33 120.93 304.47 118.18 307.89 117.48 309.28 120.05 310.17 123.3"/><polygon class="p" points="306.96 120.72 307.33 121.96 306.05 122.48 305.49 121.14 306.96 120.72"/><polygon class="p" points="305.48 124.04 304.21 124.52 304.83 125.81 305.95 125.31 305.48 124.04"/><polygon class="p" points="304.21 111.14 302.33 120.93 307.89 117.48 304.21 111.14"/><polygon class="p" points="307.89 117.48 310.17 123.3 313.7 115.2 313.16 115.06 307.89 117.48"/><polygon class="ao" points="325.16 102.45 323.86 106.2 318.46 117.08 312.45 115.7 307.75 116.25 305.11 111.36 306.52 107.48 304.91 106.47 305.11 102.94 308.17 102.67 308.78 105.79 309.84 105.82 311.43 102.67 311.52 98.01 317.26 96.91 321.63 100.51 322.77 98.02 325.16 102.45"/><polygon class="aq" points="311.69 98.11 313.71 104.22 311.97 112.41 312.45 115.7 309.93 116.04 307.89 117.48 304.21 111.14 305.62 108.83 306.57 107.62 307.48 108.04 308.74 106.01 309.89 105.98 311.58 102.73 311.69 98.11"/><polygon class="aq" points="321.7 107.48 319.42 105.89 313.71 104.22 316.77 108.42 316.12 111.14 318.94 108.52 321.7 107.48"/><polygon class="ap" points="311.97 112.41 315.89 114.29 318.96 114.63 316.35 112.67 311.97 112.41"/><polygon class="et" points="311.97 112.41 316.12 111.14 316.9 111.63 317.82 111.77 318.96 114.63 311.97 112.41"/><polygon class="ar" points="318.12 106.02 316.12 111.14 317.03 111.94 317.82 111.77 319.6 106.6 319.09 105.47 318.12 106.02"/><polygon class="et" points="313.71 104.22 321.7 107.48 323.05 105.17 313.71 104.22"/><polygon class="es" points="317.83 111.76 316.7 112.12 316.12 111.14 317.83 111.76"/><polygon class="ap" points="306.25 103.51 307.54 103.76 307.38 105.67 306.25 103.51"/><polygon class="ap" points="312.45 115.7 309.14 114.05 307.89 117.48 312.45 115.7"/><polygon class="ap" points="306.52 107.48 307.48 108.04 305.62 108.83 306.52 107.48"/><polygon class="dw" points="325.01 102.39 326.3 100.92 328.67 99.85 323.86 106.2 325.01 102.39"/><polygon class="dw" points="311.69 98.11 308.99 95.87 304.21 94.48 304.09 100.93 308.14 102.22 311.58 102.73 311.69 98.11"/><polygon class="et" points="325.01 102.39 322.73 98.39 321.27 96.49 319.95 93.53 328.67 99.85 325.01 102.39"/><polygon class="et" points="311.69 98.11 317.22 97.1 315.46 93.53 311.11 91.53 304.21 94.48 311.69 98.11"/><polygon class="dw" points="319.95 93.53 314.35 89.44 311.11 91.53 317.22 97.1 321.67 100.74 322.73 98.39 319.95 93.53"/><polygon class="et" points="311.58 102.73 304.09 100.93 303.93 105.14 304.91 106.47 305.2 103.03 308.11 102.81 308.74 106.01 309.89 105.98 311.58 102.73"/><circle class="bw" cx="315.76" cy="107.02" r="0.65"/><circle class="bw" cx="320.3" cy="108.74" r="0.65"/><polygon class="bb" points="309.19 141.38 312.41 141.69 317.51 141.38 313.88 137.64 309.19 139.29 309.19 141.38"/><rect class="cn" x="309.19" y="141.38" width="8.33" height="1.03" transform="translate(626.7 283.79) rotate(-180)"/><polygon class="er" points="306.89 133.67 304.41 135.71 300.66 135.63 295.3 133.21 294.43 125.88 299.93 126.48 300.96 128.62 306.89 133.67"/><polygon class="bg" points="305.89 140.19 306.89 133.67 300.4 135.49 301.09 141.24 304.2 143.06 305.89 140.19"/><polygon class="bb" points="305.89 140.19 307.93 144.15 304.01 144.48 300.9 144.15 301.09 141.24 305.89 140.19"/><rect class="cn" x="300.9" y="144.15" width="7.03" height="1.03" transform="translate(608.82 289.33) rotate(-180)"/><polygon class="eu" points="295.29 123.83 301.92 126.14 303.95 127.31 306.38 127.7 310.98 129.31 310.33 132.59 305.27 130.43 302.7 129.13 300.96 128.62 294.43 125.88 295.29 123.83"/><path class="p" d="M301.92,126.14l-1,2.48,4.31,1.81,1.11-2.73Zm2.55,3.17-2.27-.83.43-1.19,2.45.81Z"/><polygon class="o" points="339.57 143.5 336.81 142.79 337.17 133.67 340.24 134.06 339.57 143.5"/><polygon class="ev" points="341.97 134.13 341.35 142.62 339.57 143.5 339.21 134.06 341.97 134.13"/><polygon class="ev" points="321.87 153.59 324.35 152.17 325.77 141.89 321.51 143.44 321.87 153.59"/><polygon class="o" points="322.86 145.19 321.87 153.59 319.35 152.79 319.52 142.11 322.86 145.19"/><polygon class="ev" points="301.95 145.98 303.48 145.19 304.41 134.64 302.42 135.31 301.65 138.71 301.95 145.98"/><polygon class="o" points="300.4 135.49 299.82 145.19 301.95 145.98 302.42 135.31 300.4 135.49"/><polygon class="bf" points="342.23 130.75 341.97 134.13 322.86 145.19 322.55 140.65 342.23 130.75"/><polygon class="by" points="300.4 132.24 300.4 135.49 322.86 145.19 323.1 141.23 308.51 134.76 300.4 132.24"/><polygon class="n" points="300.4 132.24 320.01 122.52 342.23 130.75 323.1 141.23 300.4 132.24"/><polygon class="ao" points="311.81 128.83 309.33 130.06 307.31 128.24 307.33 125.63 310.33 125.54 312.74 125.88 311.81 128.83"/><polygon class="bg" points="318.43 123.3 313.24 123.47 310.33 125.54 311.81 128.83 317.86 126.14 318.43 123.3"/><polygon class="aq" points="307.33 125.63 305.49 129.72 307.67 130.73 309.29 130.06 307.33 125.63"/><polygon class="ew" points="305.79 131.6 320.27 124.93 336.28 130.79 322.32 138.14 305.79 131.6"/><polygon class="bf" points="334.19 130.03 332.78 130.79 334.77 131.59 336.28 130.79 334.19 130.03"/><polygon class="bf" points="331 131.74 332.98 132.53 331.24 133.49 329.24 132.68 331 131.74"/><polygon class="bf" points="327.56 133.58 329.49 134.36 327.7 135.31 325.77 134.54 327.56 133.58"/><polygon class="bf" points="323.96 135.51 325.84 136.28 323.96 137.31 322.05 136.54 323.96 135.51"/><polygon class="bf" points="330.81 130.03 332.78 130.79 331 131.74 329.03 130.95 330.81 130.03"/><polygon class="bf" points="327.25 131.87 329.24 132.68 327.56 133.58 325.52 132.77 327.25 131.87"/><polygon class="bf" points="323.74 133.69 325.77 134.54 323.96 135.51 321.88 134.65 323.74 133.69"/><polygon class="bf" points="319.9 135.67 322.05 136.54 320.45 137.4 318.24 136.53 319.9 135.67"/><polygon class="bf" points="319.91 133.84 321.88 134.65 319.9 135.67 317.92 134.87 319.91 133.84"/><polygon class="bf" points="321.79 132.89 323.59 131.98 325.52 132.77 323.74 133.69 321.79 132.89"/><polygon class="bf" points="325.32 131.09 327.16 130.21 329.03 130.95 327.25 131.87 325.32 131.09"/><polygon class="bf" points="328.93 129.31 330.26 128.59 332.19 129.31 330.81 130.03 328.93 129.31"/><polygon class="bf" points="326.85 128.5 328.93 129.31 327.16 130.21 325.16 129.41 326.85 128.5"/><polygon class="bf" points="323.25 130.29 325.32 131.09 323.59 131.98 321.51 131.15 323.25 130.29"/><polygon class="bf" points="319.73 132.04 321.79 132.89 319.91 133.84 317.83 132.99 319.73 132.04"/><polygon class="bf" points="315.75 134.01 317.92 134.87 316.24 135.73 314.02 134.87 315.75 134.01"/><polygon class="bf" points="315.86 132.18 317.83 132.99 315.75 134.01 313.77 133.19 315.86 132.18"/><polygon class="bf" points="317.8 131.25 319.61 130.37 321.51 131.15 319.73 132.04 317.8 131.25"/><polygon class="bf" points="321.4 129.5 323.25 128.65 325.16 129.41 323.25 130.29 321.4 129.5"/><polygon class="bf" points="324.97 127.78 326.29 127.14 328.2 127.83 326.85 128.5 324.97 127.78"/><polygon class="bf" points="322.94 127 324.97 127.78 323.25 128.65 321.19 127.82 322.94 127"/><polygon class="bf" points="319.38 128.68 321.4 129.5 319.61 130.37 317.64 129.57 319.38 128.68"/><polygon class="bf" points="315.75 130.41 317.8 131.25 315.86 132.18 313.79 131.33 315.75 130.41"/><polygon class="bf" points="311.66 132.34 313.77 133.19 312.03 134.06 309.84 133.2 311.66 132.34"/><polygon class="bf" points="309.48 131.46 311.66 130.45 313.79 131.33 311.66 132.34 309.48 131.46"/><polygon class="bf" points="313.64 129.54 315.46 128.7 317.64 129.57 315.75 130.41 313.64 129.54"/><polygon class="bf" points="317.31 127.88 319.12 127 321.19 127.82 319.38 128.68 317.31 127.88"/><polygon class="bf" points="320.87 126.2 322.94 127 324.23 126.38 322.09 125.63 320.87 126.2"/><polygon class="bf" points="319.04 125.49 320.87 126.2 319.12 127 317.26 126.31 319.04 125.49"/><polygon class="bf" points="315.59 127.08 317.31 127.88 315.46 128.7 313.64 127.98 315.59 127.08"/><polygon class="bf" points="311.81 128.83 313.64 129.54 311.66 130.45 309.87 129.72 311.81 128.83"/><polygon class="bf" points="307.67 130.73 309.48 131.46 307.58 132.34 305.79 131.6 307.67 130.73"/><polygon class="dw" points="322.61 129.49 322.01 126.31 323.38 124.96 324.23 126.49 323.82 129.31 323.28 129.81 322.61 129.49"/><polygon class="et" points="323.38 124.96 323.66 126.52 323.28 129.81 324.09 129.5 324.46 126.41 323.38 124.96"/><polygon class="dw" points="315.27 133.31 314.38 131.54 315.89 130.73 317.09 131.59 316.64 133.2 315.97 133.54 315.27 133.31"/><polygon class="et" points="315.89 130.73 316.57 131.74 315.97 133.54 316.73 133.27 317.38 131.45 315.89 130.73"/><polygon class="dw" points="318.55 132.96 319.9 130.81 320.5 132.84 319.8 133.56 318.55 132.96"/><polygon class="et" points="319.9 130.81 319.8 133.56 321.2 132.96 319.9 130.81"/><polygon class="ex" points="327.41 130.5 327.38 133.21 328.84 132.52 327.41 130.5"/><polygon class="dw" points="314.38 129.53 315.64 127.39 316.5 129.42 315.74 130.03 314.38 129.53"/><polygon class="et" points="315.64 127.39 316.99 129.53 315.74 130.03 315.64 127.39"/><polygon class="ep" points="321.38 135.69 320.72 132.16 322.15 131.16 323 132.69 322.6 135.51 322.05 136.01 321.38 135.69"/><polygon class="ex" points="322.15 131.16 322.43 132.72 322.05 136.01 322.87 135.7 323.29 132.13 322.15 131.16"/><polygon class="ey" points="359.13 144.59 347.78 156.37 346.85 148.74 352.27 146.78 359.13 144.59"/><polygon class="eo" points="335.5 146.97 347.78 156.37 349.01 150.9 346.2 147.22 335.5 146.97"/><polygon class="ah" points="332.19 119.45 329.49 120.52 329.28 121.69 332.98 120.7 332.19 119.45"/><polygon class="ax" points="329.28 121.69 330.24 122.65 332.98 121.6 332.64 120.47 329.28 121.69"/><polygon class="m" points="341.48 112.41 333.89 115.69 330.56 119.03 339.58 116.13 341.48 112.41"/><polygon class="ez" points="338.08 115.39 341.48 112.41 343.37 116.99 339.58 120.95 337.84 118.83 338.08 115.39"/><polygon class="fa" points="330.56 119.03 338.08 115.39 339.58 120.95 332.14 123.02 330.56 119.03"/><polygon class="ah" points="348.51 123.27 346.85 120.4 345.6 119.03 344.9 117.02 340.41 115.59 340.46 117.72 343.74 118.49 344.7 119.75 344.79 121.15 346.12 124.5 347.33 124.93 348.51 123.27"/><polygon class="ay" points="348.76 132.04 359.13 129.31 359.13 144.59 349.01 150.9 347.63 140.1 348.76 132.04"/><polygon class="k" points="337.43 128.97 335.5 146.97 349.01 150.9 350.04 133.32 344.92 130.01 337.43 128.97"/><polygon class="fb" points="348.51 123.27 359.13 129.31 350.04 133.32 346.85 127.29 348.51 123.27"/><polygon class="fc" points="337.43 128.97 348.51 123.27 350.04 133.32 337.43 128.97"/><polygon class="ax" points="344.9 117.02 343.74 118.49 344.79 121.15 346.85 120.4 344.9 117.02"/><polygon class="ay" points="336.46 117.42 337.2 117.04 337.94 119.79 337.2 120.12 336.46 117.42"/><polygon class="ay" points="334.98 118.05 335.78 117.72 336.52 120.33 335.81 120.56 334.98 118.05"/><polygon class="ay" points="340.61 133.2 346.2 134.76 344.91 140.85 340.01 138.7 340.61 133.2"/><polygon class="ah" points="327.84 129.86 326.35 129.89 326.17 130.69 327.3 131.53 327.84 129.86"/><polygon class="ax" points="326.17 130.69 327.84 130.41 326.91 131.29 326.17 130.69"/><polygon class="ah" points="327.27 130.84 325.84 131.31 326.03 132.5 327.23 133.45 327.38 133.21 327.59 132.04 327.27 130.84"/><polygon class="ax" points="326.69 131.65 327.38 133.21 328 132.13 326.69 131.65"/><polygon class="p" points="332.12 131.15 327.84 129.86 326.69 131.65 329.24 132.68 331.26 132.62 332.12 131.15"/><polygon class="ax" points="342.53 135.31 336.54 137.29 335.15 136.47 334.77 134.84 332.12 131.15 329.24 132.68 332.58 136.04 334.81 137.35 336.27 139.76 343.74 137.64 342.53 135.31"/><polygon class="ah" points="336.54 137.29 336.27 139.76 332.58 136.04 334.77 134.84 336.54 137.29"/><polygon class="fb" points="352.63 136.01 356.85 133.69 356.85 143 352.27 145.75 352.63 136.01"/><polygon class="eo" points="353.55 136.65 355.89 135.31 355.89 136.68 353.55 137.92 353.55 136.65"/><polygon class="eo" points="353.55 138.99 355.89 137.68 355.92 138.87 353.55 140.32 353.55 138.99"/><polygon class="ep" points="353.55 141.5 355.89 140.17 356.04 142.36 353.37 144.05 353.55 141.5"/><polygon class="ep" points="339.21 142.54 345.85 144.48 345.61 147.85 338.86 145.98 339.21 142.54"/></svg>