<?xml version="1.0" encoding="UTF-8"?><svg id="a" xmlns="http://www.w3.org/2000/svg" viewBox="0 0 40 40"><defs><style>.b{fill:#359496;}.b,.c,.d,.e,.f,.g,.h,.i,.j,.k{stroke-width:0px;}.c{fill:#8dc1d2;}.d{fill:#7bb7ca;}.e{fill:#4fa9aa;}.f{fill:#94d5d5;}.g{fill:#b3d5e1;}.h{fill:#c6e0e8;}.i{fill:#388199;}.j{fill:#f9fbfc;}.k{fill:#55a2bb;}</style></defs><polygon class="c" points="33.82 36.03 32.29 37.57 30.88 37.07 30.2 36.35 31.59 34.96 33.82 36.03"/><polygon class="c" points="10.58 35.8 9.25 36.51 7.7 34.19 10.58 34.04 10.58 35.8"/><polygon class="g" points="10.67 33.36 9.28 32.37 7.7 34.19 10.03 34.42 10.8 33.89 10.67 33.36"/><polygon class="g" points="30.77 34.54 32.71 33.89 33.82 36.03 31.19 35.82 30.2 34.86 30.77 34.54"/><polygon class="b" points="10.03 34.42 10.58 35.8 13.32 35.96 14.99 35.51 26.38 36.33 28.45 36.94 30.88 37.07 31.19 35.82 29.34 35 10.8 33.89 10.03 34.42"/><polygon class="e" points="10.67 33.36 30.77 34.54 31.19 35.82 10.03 34.42 10.67 33.36"/><polygon class="h" points="4.97 7.24 34.73 8.23 34.1 22.07 6.54 22.94 4.97 7.24"/><polygon class="b" points="6.14 13.15 7.09 14.07 32.91 13.61 33.01 12.39 28.06 11.92 8.18 12.56 6.14 13.15"/><polygon class="e" points="6.14 12.19 12.76 12 13.75 12.44 26.3 11.98 27.44 11.5 33.1 11.34 33.01 12.39 6.14 13.15 6.14 12.19"/><polygon class="c" points="8.62 20.97 32 20.72 34.1 22.07 33.61 22.92 6.54 22.94 6.19 21.21 8.62 20.97"/><polygon class="i" points="6.96 22.57 8.62 20.97 7.17 7.7 4.97 7.93 5.47 17.84 6.96 22.57"/><polygon class="i" points="33.4 22.11 32 20.72 32.67 8.23 34.73 8.23 34.28 18.19 33.4 22.11"/><polygon class="c" points="3.53 6.5 6.53 4.64 33.1 4.13 36.4 7.27 32.89 7.93 6.92 7.22 3.53 6.5"/><path class="k" d="M3.53,6.5l1.33,17.78,29.97-.64,1.58-16.37L3.53,6.5ZM33.4,22.11l-26.44.46-1.49-14.33,28.63.72-.7,13.15Z"/><polygon class="j" points="13.31 12.41 11.38 24.89 20.3 25.94 29 24.43 27.01 11.75 13.31 12.41"/><polygon class="f" points="13.8 34.9 27.5 36.06 29 24.89 28.18 23.75 12.11 24.15 11.38 25.36 13.8 34.9"/><polygon class="e" points="15.07 18.74 16.4 18.39 17.24 19.74 18.58 16.24 20.19 16.16 17.52 20.89 15.07 18.74"/><polygon class="d" points="21.02 17.89 24.93 17.42 25.01 18.2 21.09 18.53 21.02 17.89"/><polygon class="b" points="15.15 28.25 16.32 28.34 16.92 30.19 18.67 26.85 20.14 27.02 16.98 31.56 15.15 28.25"/><polygon class="k" points="21.14 29.15 25.15 29.34 25.02 30.06 21.12 29.66 21.14 29.15"/><polygon class="d" points="12.76 12 27.44 11.5 29.64 23.72 29 24.43 28.18 23.75 26.32 12.26 13.91 13.15 12.11 24.15 11.38 24.89 10.67 24.19 12.76 12"/><polygon class="k" points="10.67 24.19 12.11 24.15 14.26 34.53 26.61 35.51 28.18 23.75 29.64 23.72 28.45 36.94 13.32 35.96 10.67 24.19"/></svg>